<svg width="567" height="195" viewBox="0 0 567 195" fill="none" xmlns="http://www.w3.org/2000/svg"><path d="M333.312.595h14.321v14.32h-14.321V.595zM430.31 27.314h14.321v14.321H430.31v-14.32zM249.811 30.17h10.503v10.504h-10.503V30.17zM462.781 51.773h14.321v14.321h-14.321v-14.32zM72.197 155.849H92.5v20.303H72.197v-20.303zM252.14 82.432h14.321v14.32H252.14v-14.32zM32.402 2.571h14.32v14.321h-14.32V2.572zM349.123 109.15h14.32v14.321h-14.32V109.15zM168.625 112.007h10.504v10.504h-10.504v-10.504zM123.43 55.726h10.504v10.503H123.43V55.726zM381.609 133.609h14.321v14.321h-14.321v-14.321zM478.591 160.329h14.321v14.321h-14.321v-14.321zM298.094 163.199h10.504v10.504h-10.504v-10.504z" fill="#fff"/><path opacity=".5" d="M379.281 81.348h10.504V91.85h-10.504V81.348zM141.053 3.464h10.504v10.503h-10.504V3.464zM351.832 170.968h14.32v14.321h-14.32v-14.321z" fill="#fff"/><path opacity=".7" d="M340.475 7.741h-31.011l-11.37 11.384H185.383L175.055 8.783H9.893l-31.85 31.85H-73.35l-15.296-15.295h-54.413M437.471 34.475h-31.024l-11.37 11.37H282.379l-10.341-10.342H237.4l-8.866 8.866h-42.191l-16.608 16.608h-294.969M469.957 58.92h-31.024l-11.37 11.383h-55.591l-10.341-10.34h-157l-10.572 10.57H40.01l-25.041 15.12h-140.202M566.939 85.652h-31.023l-11.37 11.37H411.848l-10.341-10.34h-34.638l-8.866 8.865h-42.191l-16.595 16.608H258.15l-11.6-11.6h-13.914l-7.229 6.348h-363.283" stroke="#fff" stroke-width="1.354" stroke-miterlimit="10"/><path opacity=".7" d="M259.301 89.578h-31.024l-11.37 11.384H104.209L93.868 90.62h-68.91L4.032 100.962h-129.266M356.283 116.311h-31.01l-11.384 11.37H201.192l-10.342-10.342h-34.624l-8.866 8.866h-42.204l-16.595 16.608h-221.078M388.77 140.77h-31.024l-11.37 11.369h-55.578l-10.341-10.341h-157l-10.585 10.585H-13.795l-22.78 15.471h-98.134M485.752 167.489h-31.01l-11.37 11.37H330.66l-10.341-10.341h-34.624l-8.866 8.865h-42.204l-16.595 16.609h-41.067L148.985 166H26.812l-12.778 12.778H-134.71" stroke="#fff" stroke-width="1.354" stroke-miterlimit="10"/></svg>
