<svg width="195" height="651" viewBox="0 0 195 651" fill="none" xmlns="http://www.w3.org/2000/svg"><path d="M0 476.374v14.321h14.32v-14.321H0zM26.72 573.371v14.321h14.32v-14.321H26.72zM29.574 392.872v10.504h10.504v-10.504H29.574zM51.18 605.843v14.321H65.5v-14.321H51.18zM155.254 215.257v20.304h20.304v-20.304h-20.304zM81.837 395.201v14.32h14.32V395.2l-14.32.001zM1.976 175.462v14.321h14.32v-14.321H1.977zM53.222 110.518v14.321h14.321v-14.321h-14.32zM108.555 492.184v14.32h14.32v-14.32h-14.32zM111.41 311.685v10.504h10.504v-10.504H111.41zM55.129 266.49v10.504h10.504V266.49H55.129zM133.015 524.669v14.321h14.321v-14.321h-14.321zM159.734 621.653v14.32h14.321v-14.32h-14.321zM162.605 441.154v10.504h10.504v-10.504h-10.504z" fill="#fff"/><path opacity=".5" d="M80.754 522.342v10.503h10.504v-10.503H80.754zM2.871 284.114v10.504h10.504v-10.504H2.87zM136.969 78.372v10.503h10.504V78.372h-10.504zM172.243 126.735v14.32h14.321v-14.32h-14.321zM170.375 494.891v14.321h14.321v-14.321h-14.321z" fill="#fff"/><path opacity=".7" d="M7.148 483.535v-31.01l11.384-11.37V328.443L8.19 318.115V152.953l31.85-31.849V69.709L24.744 54.413V0M33.883 580.531v-31.024l11.37-11.369V425.44L34.91 415.098v-34.637l8.866-8.866v-42.191l16.609-16.608V17.826M58.328 613.018v-31.024l11.384-11.37v-55.591L59.37 504.692V347.691l10.572-10.571V183.071L85.06 158.03V17.827M85.059 710v-31.024l11.37-11.37V554.908l-10.342-10.341v-34.638l8.866-8.866v-42.19l16.608-16.595v-41.067l-11.6-11.6v-13.915l6.349-7.228V5.184" stroke="#fff" stroke-width="1.354" stroke-miterlimit="10"/><path opacity=".7" d="M88.985 402.361v-31.023l11.384-11.37V247.27l-10.342-10.342v-68.91l10.342-20.926V17.826M115.718 499.345v-31.011l11.37-11.383V344.253l-10.341-10.341v-34.625l8.866-8.865v-42.205l16.608-16.594V10.545M140.176 531.83v-31.024l11.37-11.37v-55.577l-10.342-10.341V266.517l10.585-10.584V129.266l15.472-22.781V8.352M166.895 628.813v-31.01l11.37-11.37V473.722l-10.341-10.341v-34.625l8.866-8.866v-42.204l16.608-16.595v-41.067l-27.992-27.978V169.873l12.778-12.778V8.352" stroke="#fff" stroke-width="1.354" stroke-miterlimit="10"/></svg>
