<svg width="1142" height="304" viewBox="0 0 1142 304" fill="none" xmlns="http://www.w3.org/2000/svg"><g clip-path="url(#clip0)" fill-opacity=".2"><path d="M44.028 224a5 5 0 011.932-3.027 4.985 4.985 0 016.661.674 5.004 5.004 0 01-3.2 8.328 4.985 4.985 0 01-3.461-.948A5 5 0 0144.028 226H0v-2h44.028zm159.736 48a5 5 0 011.933-3.027 4.984 4.984 0 016.661.674 5.002 5.002 0 01-3.201 8.328 4.984 4.984 0 01-3.46-.948 5 5 0 01-1.933-3.027H81.865v-2h121.899zm57.705-46a4.999 4.999 0 01-1.932 3.027 4.987 4.987 0 01-6.662-.674 5.006 5.006 0 010-6.706 4.987 4.987 0 016.662-.674 4.999 4.999 0 011.932 3.027H303.5v2h-42.031zm0 16a4.999 4.999 0 01-1.932 3.027 4.987 4.987 0 01-6.662-.674 5.006 5.006 0 010-6.706 4.987 4.987 0 016.662-.674 4.999 4.999 0 011.932 3.027H303.5v2h-42.031zm6.19-114a4.999 4.999 0 011.932-3.027 4.988 4.988 0 016.662.674 5.007 5.007 0 010 6.706 4.988 4.988 0 01-6.662.674 4.999 4.999 0 01-1.932-3.027h-86.058a5 5 0 01-1.933 3.027 4.984 4.984 0 01-6.661-.674 5.002 5.002 0 013.201-8.328 4.984 4.984 0 013.46.948 5 5 0 011.933 3.027h86.058zM12.08 80a5 5 0 011.932-3.027 4.986 4.986 0 016.662.674 5.005 5.005 0 010 6.706A4.99 4.99 0 0112.08 82H0v-2h12.08zm185.495 34a5.005 5.005 0 01-1.933 3.027 4.984 4.984 0 01-6.661-.674 5.002 5.002 0 013.201-8.328 4.984 4.984 0 013.46.948 5.005 5.005 0 011.933 3.027h86.058a4.999 4.999 0 011.932-3.027 4.986 4.986 0 016.662.674 5.006 5.006 0 010 6.706 4.986 4.986 0 01-6.662.674 4.999 4.999 0 01-1.932-3.027h-86.058zm60.001-101.9a4.99 4.99 0 013.022 1.936 5.009 5.009 0 01-.673 6.672 4.989 4.989 0 01-8.314-3.206 5.003 5.003 0 013.968-5.402V0h1.997v12.1zm-63.895 208a4.992 4.992 0 013.022 1.936 5.009 5.009 0 01-.673 6.672 4.984 4.984 0 01-6.695 0 5 5 0 01-.673-6.672 4.992 4.992 0 013.022-1.936v-54.2a4.992 4.992 0 01-3.022-1.936 5.009 5.009 0 01.673-6.672 4.989 4.989 0 018.314 3.206 5.009 5.009 0 01-.946 3.466 4.992 4.992 0 01-3.022 1.936v54.2zm47.921-198.2V80H303.5v2h-63.895V21.9a4.99 4.99 0 01-3.022-1.936 5.009 5.009 0 01.673-6.672 4.989 4.989 0 018.314 3.207 5.009 5.009 0 01-.946 3.465 4.99 4.99 0 01-3.022 1.936zm15.974 16V64H303.5v2h-47.921V37.9a5.003 5.003 0 01-2.349-8.608 4.984 4.984 0 016.695 0 5.004 5.004 0 01-2.349 8.608zm-127.79 96V208h15.974v12.1a4.992 4.992 0 013.022 1.936 5.009 5.009 0 01-.673 6.672 4.984 4.984 0 01-6.695 0 5 5 0 01-.673-6.672 4.992 4.992 0 013.022-1.936V210h-15.974v-76.1a4.992 4.992 0 01-3.022-1.936 5.009 5.009 0 01.673-6.672 4.989 4.989 0 018.314 3.206 4.998 4.998 0 01-3.968 5.402zm-5.89-21.9a4.999 4.999 0 011.932-3.027 4.988 4.988 0 016.662.674 5.007 5.007 0 010 6.706 4.988 4.988 0 01-6.662.674 4.999 4.999 0 01-1.932-3.027h-10.084v48H85.759a5 5 0 01-1.933 3.027 4.986 4.986 0 01-6.661-.674 5.004 5.004 0 013.201-8.328 4.986 4.986 0 013.46.948A5 5 0 0185.76 160h26.057v-48h12.08zm-6.19 130a4.999 4.999 0 01-1.932 3.027 4.988 4.988 0 01-6.662-.674 5.007 5.007 0 010-6.706 4.988 4.988 0 016.662-.674 4.999 4.999 0 011.932 3.027h58.005v-74.1a4.991 4.991 0 01-3.023-1.936 5.009 5.009 0 01.673-6.672 4.989 4.989 0 018.314 3.206 4.998 4.998 0 01-3.968 5.402V242h-60.001zm-15.974-64a4.999 4.999 0 01-1.932 3.027 4.986 4.986 0 01-6.661-.674 5.004 5.004 0 013.2-8.328 4.986 4.986 0 013.461.948 4.999 4.999 0 011.932 3.027h12.08v48h10.084a4.999 4.999 0 011.932-3.027 4.988 4.988 0 016.662.674 5.007 5.007 0 010 6.706 4.988 4.988 0 01-6.662.674 4.999 4.999 0 01-1.932-3.027h-12.08v-48h-10.084zm-35.84 106.1a4.992 4.992 0 013.022 1.936 5.006 5.006 0 01-.673 6.672 4.987 4.987 0 01-6.696 0 5.003 5.003 0 012.35-8.608V274H49.918v30H47.92v-32h17.97v12.1zM235.711 176a4.999 4.999 0 011.932-3.027 4.986 4.986 0 016.661.674 5.002 5.002 0 01-3.201 8.328 4.986 4.986 0 01-3.46-.948 4.999 4.999 0 01-1.932-3.027h-10.084v94h47.921v32h-1.996v-30h-47.921v-98h12.08zm25.757-30a4.999 4.999 0 01-1.932 3.027 4.987 4.987 0 01-6.662-.674 5.006 5.006 0 010-6.706 4.987 4.987 0 016.662-.674 4.999 4.999 0 011.932 3.027h12.08v44.1a4.997 4.997 0 013.968 5.402 4.989 4.989 0 01-9.932 0 4.997 4.997 0 013.968-5.402V146h-10.084zm-63.894 96a5.005 5.005 0 01-1.933 3.027 4.984 4.984 0 01-6.661-.674 5.002 5.002 0 013.201-8.328 4.984 4.984 0 013.46.948 5.005 5.005 0 011.933 3.027h10.083v-80h15.974v-14h-42.031a5 5 0 01-1.933 3.027 4.984 4.984 0 01-6.661-.674 5.002 5.002 0 013.201-8.328 4.984 4.984 0 013.46.948 5 5 0 011.933 3.027h44.027v18h-15.973v80h-12.08zm86.058-210a5 5 0 011.932-3.027 4.986 4.986 0 016.662.674 5.007 5.007 0 010 6.706 4.986 4.986 0 01-6.662.674A5 5 0 01283.633 34h-12.08V0h1.996v32h10.084zM97.839 101.9V146H53.81a5 5 0 01-1.932 3.027 4.985 4.985 0 01-6.661-.674 5.004 5.004 0 013.2-8.328 4.985 4.985 0 013.46.948A5 5 0 0153.812 144h42.031v-42.1a4.994 4.994 0 01-3.022-1.936 5.005 5.005 0 01.673-6.672 4.987 4.987 0 016.695 0 5.009 5.009 0 01.673 6.672 4.993 4.993 0 01-3.022 1.936zM53.81 34a5.001 5.001 0 01-1.932 3.027 4.986 4.986 0 01-6.661-.674 5.005 5.005 0 010-6.706A4.99 4.99 0 0153.81 32h26.057V0h1.997v34H53.811zm60.001 3.9V66H81.865v64h-12.08a5 5 0 01-1.932 3.027 4.985 4.985 0 01-6.662-.674 5.004 5.004 0 013.201-8.328 4.985 4.985 0 013.46.948A5 5 0 0169.786 128h10.083V64h31.948V37.9a4.998 4.998 0 01-3.968-5.401A5 5 0 01112.814 28c1.237 0 2.43.46 3.348 1.291a5.009 5.009 0 01.673 6.672 4.99 4.99 0 01-3.023 1.936zM101.732 82a5 5 0 01-1.932 3.027 4.986 4.986 0 01-6.661-.674 5.005 5.005 0 010-6.706A4.99 4.99 0 01101.732 80h26.057V37.9a4.99 4.99 0 01-3.022-1.936 5.009 5.009 0 01.673-6.672 4.989 4.989 0 018.314 3.206 4.998 4.998 0 01-3.968 5.402V82h-28.054zm15.974-64a4.988 4.988 0 01-8.594 2.353 5.008 5.008 0 010-6.706A4.988 4.988 0 01117.706 16h28.054v44.1a4.99 4.99 0 013.022 1.936 5.009 5.009 0 01-.673 6.672 4.984 4.984 0 01-6.695 0 5.009 5.009 0 01-.673-6.672 4.99 4.99 0 013.022-1.936V18h-26.057zm102.032 270a4.999 4.999 0 011.932-3.027 4.988 4.988 0 016.662.674 5.007 5.007 0 010 6.706 4.988 4.988 0 01-6.662.674 4.999 4.999 0 01-1.932-3.027h-121.9v14h-1.996v-16h123.896zm21.864-138.1V160h15.974v34h-15.974v62h47.921v48h-1.997v-46h-47.921v-66h15.974v-30h-15.974v-12.1a4.992 4.992 0 01-3.022-1.936 5.009 5.009 0 01.673-6.672 4.989 4.989 0 018.314 3.206 5.009 5.009 0 01-.946 3.466 4.992 4.992 0 01-3.022 1.936zM53.812 18a5.001 5.001 0 01-1.933 3.027 4.986 4.986 0 01-6.661-.674 5.005 5.005 0 010-6.706A4.99 4.99 0 0153.81 16h10.084V2H47.92V0h17.97v18h-12.08zm111.815 32a4.988 4.988 0 01-8.594 2.353 5.008 5.008 0 010-6.706A4.988 4.988 0 01165.627 48h26.057V0h49.918v2h-47.921v48h-28.054zM117.706 2a5.002 5.002 0 01-2.139 3.172 4.984 4.984 0 01-6.918-1.414A5.008 5.008 0 01107.922 0h2.067a3.007 3.007 0 00.381 2.73 3 3 0 002.444 1.266 2.99 2.99 0 002.444-1.266 2.995 2.995 0 00.381-2.73h62.068v34h-17.97V21.9a4.998 4.998 0 01-3.968-5.401A5 5 0 01160.735 12c1.237 0 2.43.46 3.348 1.291a5.009 5.009 0 01.673 6.672 4.99 4.99 0 01-3.022 1.936V32h13.977V2h-58.005zm0 96a4.999 4.999 0 01-1.932 3.027 4.988 4.988 0 01-6.662-.674 5.007 5.007 0 010-6.706A4.988 4.988 0 01117.706 96h19.069l31.947-32h38.936V21.9a5.003 5.003 0 01-2.349-8.608 4.984 4.984 0 016.695 0 5.004 5.004 0 01-2.349 8.608V66h-40.104l-31.948 32h-19.897zm28.054 90.1a4.992 4.992 0 013.022 1.936 5.009 5.009 0 01-.673 6.672 4.984 4.984 0 01-6.695 0 5 5 0 01-.673-6.672 4.992 4.992 0 013.022-1.936v-76.51L175.301 80h48.331V21.9a4.995 4.995 0 01-3.969-5.401 5.009 5.009 0 011.619-3.207 4.989 4.989 0 018.314 3.207 4.998 4.998 0 01-3.968 5.401V82H176.12l-30.36 30.41v75.69zm15.974 32a4.992 4.992 0 013.022 1.936 5.009 5.009 0 01-.673 6.672 4.989 4.989 0 01-8.314-3.206 4.998 4.998 0 013.968-5.402v-99.51L184.286 96h115.32c.196-.96.67-1.843 1.362-2.536A4.99 4.99 0 01303.5 92.1v2.07a3 3 0 00-1.45 4.564c.358.507.865.89 1.45 1.096v2.07a5.006 5.006 0 01-3.894-3.9H185.105l-23.371 23.41v98.69zm-143.764-64a4.993 4.993 0 013.023 1.936 5.005 5.005 0 01-.673 6.672 4.987 4.987 0 01-6.696 0 5.004 5.004 0 012.35-8.608v-3.51l47.92-48V48h31.948V0h1.997v50H65.89v55.41l-47.92 48v2.69zM49.918 53.9v43.51l-47.921 48V208h26.057a5 5 0 011.932-3.027 4.985 4.985 0 016.662.674 5.004 5.004 0 01-3.202 8.328 4.985 4.985 0 01-3.46-.948A5 5 0 0128.054 210H0v-65.41l47.921-48V53.9a4.991 4.991 0 01-3.022-1.936 5.006 5.006 0 01.673-6.672 4.987 4.987 0 016.695 0 5.002 5.002 0 01-2.35 8.608zm-15.974 16v19.51L0 123.41v-2.82l31.947-32V69.9a4.991 4.991 0 01-3.022-1.936 5.006 5.006 0 01.673-6.672 4.987 4.987 0 016.695 0 5.003 5.003 0 01-2.349 8.608zM12.08 32a5 5 0 011.932-3.027 4.986 4.986 0 016.662.674 5.005 5.005 0 010 6.706A4.99 4.99 0 0112.08 34H9.395L0 43.41V40.6L8.576 32h3.504zm265.363 18a4.988 4.988 0 01-8.594 2.353 5.008 5.008 0 010-6.706A4.988 4.988 0 01277.443 48h18.659l7.398-7.41v2.82L296.921 50h-19.478zm-15.974 160a4.999 4.999 0 01-1.932 3.027 4.987 4.987 0 01-6.662-.674 5.006 5.006 0 010-6.706 4.987 4.987 0 016.662-.674 4.999 4.999 0 011.932 3.027h26.057v-71.41l15.974-16v2.82l-13.977 14V210h-28.054zM53.811 242a5 5 0 01-1.932 3.027 4.985 4.985 0 01-6.661-.674 5.004 5.004 0 013.2-8.328 4.985 4.985 0 013.46.948A5 5 0 0153.812 240h10.084v-22.59L40.523 194H21.864a5 5 0 01-1.932 3.027 4.986 4.986 0 01-6.662-.674 5.004 5.004 0 013.201-8.328 4.986 4.986 0 013.46.948A5 5 0 0121.865 192h19.478l24.55 24.59V242h-12.08zm149.953 14a5 5 0 011.933-3.027 4.984 4.984 0 016.661.674 5.002 5.002 0 01-3.201 8.328 4.984 4.984 0 01-3.46-.948 5 5 0 01-1.933-3.027H95.842v-56.6L56.507 162h-18.67a5 5 0 01-1.932 3.027 4.986 4.986 0 01-6.661-.674 5.004 5.004 0 013.201-8.328 4.986 4.986 0 013.46.948A5 5 0 0137.838 160h19.468l40.533 40.6V256h105.925zm-149.953 2a5 5 0 01-1.932 3.027 4.985 4.985 0 01-6.661-.674 5.004 5.004 0 013.2-8.328 4.985 4.985 0 013.46.948A5 5 0 0153.812 256h26.057v-46.59L48.51 178H21.864a5 5 0 01-1.932 3.027 4.986 4.986 0 01-6.662-.674 5.004 5.004 0 013.201-8.328 4.986 4.986 0 013.46.948A5 5 0 0121.865 176h27.465l32.536 32.59V258H53.811zM33.944 41.41L9.394 66H0v-2h8.576l23.371-23.41V0h1.997v41.41zM1.997 300.1A5 5 0 015.89 304H3.823A2.996 2.996 0 000 302.17V256h17.97v48h-1.996v-46H1.997v42.1zm31.947 3.9h-1.997v-62H0v-2h33.944v64zM0 18v-2h15.974V0h1.996v18H0zm289.523-2H303.5v2h-15.974V0h1.997v16zm-31.947 288h-1.997v-14h-13.977v14h-1.997v-16h17.971v16zM0 92.1a5.004 5.004 0 015.501 2.761c.319.668.486 1.399.49 2.139a5.007 5.007 0 01-1.835 3.874A4.996 4.996 0 010 101.9v-2.07a2.985 2.985 0 002.725-.382 2.999 2.999 0 00.93-3.826 2.999 2.999 0 00-2.246-1.593A2.991 2.991 0 000 94.17V92.1zM79.868 272h1.997v32h-1.997v-32zm37.838 32h-2.067a2.996 2.996 0 00-4.556-1.453 3.002 3.002 0 00-1.094 1.453h-2.067a5.004 5.004 0 011.733-2.876 4.988 4.988 0 018.051 2.876zM5.89 0a5.028 5.028 0 01-1.372 4.525A5.01 5.01 0 010 5.9V3.83a2.99 2.99 0 003.119-.706A3.001 3.001 0 003.824 0H5.89zm293.716 0h2.067a3.006 3.006 0 001.827 3.83V5.9a4.987 4.987 0 01-3.167-2.142A5.004 5.004 0 01299.606 0zm3.894 300.1v2.07a2.987 2.987 0 00-1.827 1.83h-2.067a5.005 5.005 0 013.894-3.9zM96.84 100a2.99 2.99 0 002.767-1.852A3.002 3.002 0 0096.841 94c-.795 0-1.557.316-2.118.879A3.002 3.002 0 0096.84 100zm0-16c.795 0 1.557-.316 2.118-.879A3.002 3.002 0 0096.841 78c-.795 0-1.557.316-2.118.879A3.002 3.002 0 0096.84 84zm15.974 16a2.99 2.99 0 002.767-1.852 2.995 2.995 0 000-2.296 2.992 2.992 0 00-4.885-.973 3.005 3.005 0 000 4.242 2.994 2.994 0 002.118.879zm15.974 16c.794 0 1.556-.316 2.118-.879a3.003 3.003 0 000-4.242 2.993 2.993 0 00-5.113 2.121 2.999 2.999 0 002.995 3zm0 16c.794 0 1.556-.316 2.118-.879a3.003 3.003 0 000-4.242 2.993 2.993 0 00-5.113 2.121 2.999 2.999 0 002.995 3zm-47.921 32a3 3 0 000-6 3 3 0 000 6zm15.974 16a3 3 0 000-6 3 3 0 000 6zm31.947 48c.794 0 1.556-.316 2.118-.879a3.003 3.003 0 000-4.242 2.993 2.993 0 00-5.113 2.121 2.999 2.999 0 002.995 3zm-15.974 16a2.999 2.999 0 002.995-3 2.999 2.999 0 00-2.995-3c-.794 0-1.556.316-2.118.879a3.003 3.003 0 000 4.242 2.993 2.993 0 002.118.879zm31.948-16a3 3 0 000-6 3 3 0 000 6zm0-32a3 3 0 000-6 3 3 0 000 6zm15.973 32a2.999 2.999 0 002.995-3 2.999 2.999 0 00-2.995-3c-.794 0-1.556.316-2.118.879a3.003 3.003 0 000 4.242 2.993 2.993 0 002.118.879zm31.948 16a3 3 0 000-6 2.999 2.999 0 00-2.995 3 2.999 2.999 0 002.995 3zm0-16a3 3 0 000-6 2.999 2.999 0 00-2.995 3 2.999 2.999 0 002.995 3zm-15.974-64c.794 0 1.556-.316 2.118-.879a3.003 3.003 0 000-4.242 2.993 2.993 0 00-5.113 2.121 2.999 2.999 0 002.995 3zm15.974 0a3 3 0 000-6 2.999 2.999 0 00-2.995 3 2.999 2.999 0 002.995 3zm15.973 96a2.999 2.999 0 002.995-3 2.999 2.999 0 00-2.995-3c-.794 0-1.556.316-2.118.879a3.003 3.003 0 000 4.242 2.993 2.993 0 002.118.879zm0 16a2.999 2.999 0 002.995-3 2.999 2.999 0 00-2.995-3c-.794 0-1.556.316-2.118.879a3.003 3.003 0 000 4.242 2.993 2.993 0 002.118.879zm15.974 16c.794 0 1.556-.316 2.118-.879a3.003 3.003 0 000-4.242 2.993 2.993 0 00-5.113 2.121 2.999 2.999 0 002.995 3zm15.974-144a3 3 0 000-6 2.999 2.999 0 00-2.995 3 2.999 2.999 0 002.995 3zm0 32a3 3 0 000-6 2.999 2.999 0 00-2.995 3 2.999 2.999 0 002.995 3zm15.973-32a2.999 2.999 0 002.995-3 2.999 2.999 0 00-2.995-3c-.794 0-1.556.316-2.118.879a3.003 3.003 0 000 4.242 2.993 2.993 0 002.118.879zm15.974-16c.794 0 1.556-.316 2.118-.879a3.003 3.003 0 000-4.242 2.993 2.993 0 00-5.113 2.121 2.999 2.999 0 002.995 3zm-95.842 0c.794 0 1.556-.316 2.118-.879a3.003 3.003 0 000-4.242 2.993 2.993 0 00-5.113 2.121 2.999 2.999 0 002.995 3zm0 16c.794 0 1.556-.316 2.118-.879a3.003 3.003 0 000-4.242 2.993 2.993 0 00-5.113 2.121 2.999 2.999 0 002.995 3zm15.974-32a3 3 0 000-6 2.999 2.999 0 00-2.995 3 2.999 2.999 0 002.995 3zm95.842 0a3 3 0 000-6 2.999 2.999 0 00-2.995 3 2.999 2.999 0 002.995 3zm-15.974-64a2.994 2.994 0 002.995-3 2.994 2.994 0 10-5.99 0 3 3 0 002.995 3zm15.974-16a3.002 3.002 0 000-6 3 3 0 000 6zm-31.948 0a3 3 0 000-6 2.994 2.994 0 00-2.995 3 2.994 2.994 0 002.995 3zm0-16a3.001 3.001 0 000-6 2.994 2.994 0 00-2.995 3 2.994 2.994 0 002.995 3zm-15.973 0a3.002 3.002 0 000-6 3.001 3.001 0 000 6zm-15.974 0a2.994 2.994 0 002.995-3 2.994 2.994 0 10-5.99 0 3.001 3.001 0 002.995 3zm-15.974 0a3.001 3.001 0 000-6 2.994 2.994 0 00-2.995 3 2.994 2.994 0 002.995 3zM48.919 36a3.002 3.002 0 000-6 3.002 3.002 0 000 6zm-31.947 0a3.002 3.002 0 000-6 3.002 3.002 0 000 6zm31.947 16a3.002 3.002 0 000-6 3.002 3.002 0 000 6zM32.946 68c.794 0 1.556-.316 2.118-.879a3.003 3.003 0 000-4.242A2.993 2.993 0 0029.95 65c0 .796.315 1.559.877 2.121a2.993 2.993 0 002.118.879zm15.973-48c.795 0 1.557-.316 2.118-.879A3.003 3.003 0 0048.92 14c-.794 0-1.556.316-2.117.879A3.003 3.003 0 0048.919 20zm0 240a3 3 0 000-6 3 3 0 000 6zm15.974 32a3 3 0 000-6 3 3 0 000 6zM48.92 228a3 3 0 000-6 3 3 0 000 6zm0 16a3 3 0 000-6 3 3 0 000 6zm-15.973-32a3 3 0 000-6 3 3 0 000 6zm79.868-176a2.994 2.994 0 002.995-3 3 3 0 00-2.995-3 2.994 2.994 0 00-2.995 3 2.994 2.994 0 002.995 3zm15.974 0a2.994 2.994 0 002.995-3 2.994 2.994 0 10-5.99 0 3 3 0 002.995 3zm-15.974-16a2.994 2.994 0 002.995-3 3.001 3.001 0 00-2.995-3 2.994 2.994 0 00-2.995 3 2.994 2.994 0 002.995 3zm31.948 48a3.002 3.002 0 000-6 3.002 3.002 0 000 6zm15.973-16a3 3 0 000-6 2.994 2.994 0 00-2.995 3 2.994 2.994 0 002.995 3zm0-32a3.001 3.001 0 000-6 2.994 2.994 0 00-2.995 3 2.994 2.994 0 002.995 3zm111.816 176c.794 0 1.556-.316 2.118-.879a3.003 3.003 0 000-4.242 2.993 2.993 0 00-5.113 2.121 2.999 2.999 0 002.995 3zm-15.974 16a2.999 2.999 0 002.995-3 2.999 2.999 0 00-2.995-3c-.794 0-1.556.316-2.118.879a3.003 3.003 0 000 4.242 2.993 2.993 0 002.118.879zm0 16a2.999 2.999 0 002.995-3 2.999 2.999 0 00-2.995-3c-.794 0-1.556.316-2.118.879a3.003 3.003 0 000 4.242 2.993 2.993 0 002.118.879zm0 16a2.999 2.999 0 002.995-3 2.999 2.999 0 00-2.995-3c-.794 0-1.556.316-2.118.879a3.003 3.003 0 000 4.242 2.993 2.993 0 002.118.879zM16.972 180a3 3 0 000-6 3 3 0 000 6zm0 16a3 3 0 000-6 3 3 0 000 6zm0-32a3 3 0 000-6 3 3 0 000 6zm15.974 0a3 3 0 000-6 3 3 0 000 6zM16.972 84c.794 0 1.556-.316 2.118-.879A3.002 3.002 0 0016.972 78c-.794 0-1.556.316-2.118.879A3.002 3.002 0 0016.972 84zm31.947 64a3 3 0 000-6 3 3 0 000 6zm15.974-16a3 3 0 000-6 3 3 0 000 6z" fill="url(#paint0_linear)"/><path d="M347.527 224a5.005 5.005 0 011.933-3.027 4.984 4.984 0 016.661.674 5.002 5.002 0 01-3.201 8.328 4.984 4.984 0 01-3.46-.948 5.005 5.005 0 01-1.933-3.027H303.5v-2h44.027zm159.737 48a5 5 0 011.933-3.027 4.984 4.984 0 016.661.674 5.002 5.002 0 01-3.201 8.328 4.984 4.984 0 01-3.46-.948 5 5 0 01-1.933-3.027H385.365v-2h121.899zm57.705-46a4.999 4.999 0 01-1.932 3.027 4.987 4.987 0 01-6.662-.674 5.006 5.006 0 010-6.706 4.987 4.987 0 016.662-.674 4.999 4.999 0 011.932 3.027H607v2h-42.031zm0 16a4.999 4.999 0 01-1.932 3.027 4.987 4.987 0 01-6.662-.674 5.006 5.006 0 010-6.706 4.987 4.987 0 016.662-.674 4.999 4.999 0 011.932 3.027H607v2h-42.031zm6.19-114a4.999 4.999 0 011.932-3.027 4.988 4.988 0 016.662.674 5.007 5.007 0 010 6.706 4.988 4.988 0 01-6.662.674 4.999 4.999 0 01-1.932-3.027h-86.058a5 5 0 01-1.933 3.027 4.984 4.984 0 01-6.661-.674 5.002 5.002 0 013.201-8.328 4.984 4.984 0 013.46.948 5 5 0 011.933 3.027h86.058zM315.58 80a5.002 5.002 0 011.933-3.027 4.984 4.984 0 016.661.674 5.008 5.008 0 010 6.706A4.99 4.99 0 01315.58 82H303.5v-2h12.08zm185.494 34a4.999 4.999 0 01-1.932 3.027 4.984 4.984 0 01-6.661-.674 5.002 5.002 0 013.201-8.328 4.984 4.984 0 013.46.948 4.999 4.999 0 011.932 3.027h86.059a4.999 4.999 0 011.932-3.027 4.987 4.987 0 016.662.674 5.007 5.007 0 010 6.706 4.987 4.987 0 01-6.662.674 4.999 4.999 0 01-1.932-3.027h-86.059zm60.002-101.9a4.99 4.99 0 013.022 1.936 5.009 5.009 0 01-.673 6.672 4.989 4.989 0 01-8.314-3.206 5.009 5.009 0 01.946-3.466 4.99 4.99 0 013.022-1.936V0h1.997v12.1zm-63.895 208a4.992 4.992 0 013.022 1.936 5.009 5.009 0 01-.673 6.672 4.984 4.984 0 01-6.695 0 5 5 0 01-.673-6.672 4.992 4.992 0 013.022-1.936v-54.2a4.992 4.992 0 01-3.022-1.936 5.009 5.009 0 01.673-6.672 4.989 4.989 0 018.314 3.206 5.009 5.009 0 01-.946 3.466 4.992 4.992 0 01-3.022 1.936v54.2zm47.921-198.2V80H607v2h-63.895V21.9a4.99 4.99 0 01-3.022-1.936 5.009 5.009 0 01.673-6.672 4.989 4.989 0 018.314 3.207 5.009 5.009 0 01-.946 3.465 4.99 4.99 0 01-3.022 1.936zm15.974 16V64H607v2h-47.921V37.9a4.99 4.99 0 01-3.022-1.936 5.009 5.009 0 01.673-6.672 4.984 4.984 0 016.695 0 5.004 5.004 0 01-2.349 8.608zm-127.79 96V208h15.974v12.1a4.992 4.992 0 013.022 1.936 5.009 5.009 0 01-.673 6.672 4.984 4.984 0 01-6.695 0 5 5 0 01-.673-6.672 4.992 4.992 0 013.022-1.936V210h-15.974v-76.1a4.992 4.992 0 01-3.022-1.936 5.009 5.009 0 01.673-6.672 4.989 4.989 0 018.314 3.206 4.998 4.998 0 01-3.968 5.402zm-5.89-21.9a4.999 4.999 0 011.932-3.027 4.988 4.988 0 016.662.674 5.007 5.007 0 010 6.706 4.988 4.988 0 01-6.662.674 4.999 4.999 0 01-1.932-3.027h-10.084v48h-28.053a5 5 0 01-1.933 3.027 4.984 4.984 0 01-6.661-.674 5.002 5.002 0 013.201-8.328 4.984 4.984 0 013.46.948 5 5 0 011.933 3.027h26.057v-48h12.08zm-6.19 130a4.999 4.999 0 01-1.932 3.027 4.988 4.988 0 01-6.662-.674 5.007 5.007 0 010-6.706 4.988 4.988 0 016.662-.674 4.999 4.999 0 011.932 3.027h58.005v-74.1a4.991 4.991 0 01-3.023-1.936 5.009 5.009 0 01.673-6.672 4.989 4.989 0 018.314 3.206 4.998 4.998 0 01-3.968 5.402V242h-60.001zm-15.974-64a4.999 4.999 0 01-1.932 3.027 4.984 4.984 0 01-6.661-.674 5.002 5.002 0 013.201-8.328 4.984 4.984 0 013.46.948 4.999 4.999 0 011.932 3.027h12.08v48h10.084a4.999 4.999 0 011.932-3.027 4.988 4.988 0 016.662.674 5.007 5.007 0 010 6.706 4.988 4.988 0 01-6.662.674 4.999 4.999 0 01-1.932-3.027h-12.08v-48h-10.084zm-35.841 106.1a4.997 4.997 0 013.969 5.402 5.01 5.01 0 01-1.619 3.206 4.989 4.989 0 01-8.314-3.206 4.998 4.998 0 013.968-5.402V274h-13.977v30h-1.997v-32h17.97v12.1zM539.212 176a4.999 4.999 0 011.932-3.027 4.986 4.986 0 016.661.674 5.002 5.002 0 01-3.201 8.328 4.986 4.986 0 01-3.46-.948 4.999 4.999 0 01-1.932-3.027h-10.084v94h47.921v32h-1.996v-30h-47.921v-98h12.08zm25.757-30a4.999 4.999 0 01-1.932 3.027 4.987 4.987 0 01-6.662-.674 5.006 5.006 0 010-6.706 4.987 4.987 0 016.662-.674 4.999 4.999 0 011.932 3.027h12.08v44.1a4.997 4.997 0 013.968 5.402 4.989 4.989 0 01-9.933 0 4.997 4.997 0 013.969-5.402V146h-10.084zm-63.895 96a4.999 4.999 0 01-1.932 3.027 4.984 4.984 0 01-6.661-.674 5.002 5.002 0 013.201-8.328 4.984 4.984 0 013.46.948 4.999 4.999 0 011.932 3.027h10.084v-80h15.974v-14h-42.031a5 5 0 01-1.933 3.027 4.984 4.984 0 01-6.661-.674 5.002 5.002 0 013.201-8.328 4.984 4.984 0 013.46.948 5 5 0 011.933 3.027h44.027v18h-15.973v80h-12.081zm86.059-210a5 5 0 011.932-3.027 4.987 4.987 0 016.662.674 5.008 5.008 0 010 6.706 4.987 4.987 0 01-6.662.674A5 5 0 01587.133 34h-12.08V0h1.996v32h10.084zm-185.794 69.9V146h-44.028a4.999 4.999 0 01-1.932 3.027 4.986 4.986 0 01-6.661-.674 5.002 5.002 0 013.201-8.328 4.986 4.986 0 013.46.948 4.999 4.999 0 011.932 3.027h42.031v-42.1a4.993 4.993 0 01-3.022-1.936 5.009 5.009 0 01.673-6.672 4.984 4.984 0 016.695 0 5.009 5.009 0 01.673 6.672 4.993 4.993 0 01-3.022 1.936zM357.311 34a5 5 0 01-1.932 3.027 4.986 4.986 0 01-6.661-.674 5.003 5.003 0 013.201-8.328 4.986 4.986 0 013.46.948A5 5 0 01357.311 32h26.057V0h1.997v34h-28.054zm60.001 3.9V66h-31.947v64h-12.08a4.999 4.999 0 01-1.932 3.027 4.988 4.988 0 01-6.662-.674 5.007 5.007 0 010-6.706 4.988 4.988 0 016.662-.674 4.999 4.999 0 011.932 3.027h10.083V64h31.948V37.9a4.998 4.998 0 01-3.968-5.401A5 5 0 01416.314 28c1.237 0 2.43.46 3.348 1.291a5.009 5.009 0 01.673 6.672 4.99 4.99 0 01-3.023 1.936zM405.232 82a5 5 0 01-1.932 3.027 4.984 4.984 0 01-6.661-.674 5.003 5.003 0 013.201-8.328 4.984 4.984 0 013.46.948A5 5 0 01405.232 80h26.057V37.9a4.99 4.99 0 01-3.022-1.936 5.009 5.009 0 01.673-6.672 4.989 4.989 0 018.314 3.206 4.998 4.998 0 01-3.968 5.402V82h-28.054zm15.974-64a4.988 4.988 0 01-8.594 2.353 5.008 5.008 0 010-6.706A4.988 4.988 0 01421.206 16h28.054v44.1a4.99 4.99 0 013.022 1.936 5.009 5.009 0 01-.673 6.672 4.984 4.984 0 01-6.695 0 5.009 5.009 0 01-.673-6.672 4.99 4.99 0 013.022-1.936V18h-26.057zm102.032 270a4.999 4.999 0 011.932-3.027 4.988 4.988 0 016.662.674 5.007 5.007 0 010 6.706 4.988 4.988 0 01-6.662.674 4.999 4.999 0 01-1.932-3.027H401.339v14h-1.997v-16h123.896zm21.864-138.1V160h15.974v34h-15.974v62h47.921v48h-1.997v-46h-47.921v-66h15.974v-30h-15.974v-12.1a4.992 4.992 0 01-3.022-1.936 5.009 5.009 0 01.673-6.672 4.989 4.989 0 018.314 3.206 5.009 5.009 0 01-.946 3.466 4.992 4.992 0 01-3.022 1.936zM357.311 18a5 5 0 01-1.932 3.027 4.986 4.986 0 01-6.661-.674 5.003 5.003 0 013.201-8.328 4.986 4.986 0 013.46.948A5 5 0 01357.311 16h10.084V2h-15.974V0h17.97v18h-12.08zm111.816 32a4.988 4.988 0 01-8.594 2.353 5.008 5.008 0 010-6.706A4.988 4.988 0 01469.127 48h26.057V0h49.918v2h-47.921v48h-28.054zM421.206 2a5.002 5.002 0 01-2.139 3.172 4.984 4.984 0 01-6.918-1.414A5.008 5.008 0 01411.422 0h2.067a3.007 3.007 0 00.381 2.73 3 3 0 002.444 1.266 2.99 2.99 0 002.444-1.266 2.995 2.995 0 00.381-2.73h62.068v34h-17.97V21.9a4.998 4.998 0 01-3.968-5.401A5 5 0 01464.235 12c1.237 0 2.43.46 3.348 1.291a5.009 5.009 0 01.673 6.672 4.99 4.99 0 01-3.022 1.936V32h13.977V2h-58.005zm0 96a4.999 4.999 0 01-1.932 3.027 4.988 4.988 0 01-6.662-.674 5.007 5.007 0 010-6.706A4.988 4.988 0 01421.206 96h19.069l31.947-32h38.936V21.9a5.003 5.003 0 01-2.349-8.608 4.984 4.984 0 016.695 0 5.004 5.004 0 01-2.349 8.608V66h-40.104l-31.948 32h-19.897zm28.054 90.1a4.992 4.992 0 013.022 1.936 5.009 5.009 0 01-.673 6.672 4.984 4.984 0 01-6.695 0 5 5 0 01-.673-6.672 4.992 4.992 0 013.022-1.936v-76.51L478.801 80h48.331V21.9a4.995 4.995 0 01-3.969-5.401 5.009 5.009 0 011.619-3.207 4.989 4.989 0 018.314 3.207 4.995 4.995 0 01-3.968 5.401V82H479.62l-30.36 30.41v75.69zm15.974 32a4.992 4.992 0 013.022 1.936 5.009 5.009 0 01-.673 6.672 4.989 4.989 0 01-8.314-3.206 4.998 4.998 0 013.968-5.402v-99.51L487.786 96h115.32c.196-.96.67-1.843 1.362-2.536A4.99 4.99 0 01607 92.1v2.07a3 3 0 00-1.45 4.564c.358.507.865.89 1.45 1.096v2.07a5.006 5.006 0 01-3.894-3.9H488.605l-23.371 23.41v98.69zm-143.764-64a4.997 4.997 0 013.969 5.402 5.01 5.01 0 01-1.619 3.206 4.989 4.989 0 01-8.314-3.206 4.997 4.997 0 013.968-5.402v-3.51l47.921-48V48h31.947V0h1.997v50h-31.948v55.41l-47.921 48v2.69zm31.948-102.2v43.51l-47.921 48V208h26.057a4.999 4.999 0 011.932-3.027 4.987 4.987 0 016.662.674 5.006 5.006 0 010 6.706 4.987 4.987 0 01-6.662.674 4.999 4.999 0 01-1.932-3.027H303.5v-65.41l47.921-48V53.9a4.99 4.99 0 01-3.022-1.936 5.009 5.009 0 01.673-6.672 4.984 4.984 0 016.695 0 5.009 5.009 0 01.673 6.672 4.99 4.99 0 01-3.022 1.936zm-15.974 16v19.51l-33.944 34v-2.82l31.947-32V69.9a4.99 4.99 0 01-3.022-1.936 5.009 5.009 0 01.673-6.672 4.989 4.989 0 018.314 3.207 5.003 5.003 0 01-3.968 5.401zM315.58 32a5.002 5.002 0 011.933-3.027 4.984 4.984 0 016.661.674 5.008 5.008 0 010 6.706A4.99 4.99 0 01315.58 34h-2.685l-9.395 9.41V40.6l8.576-8.6h3.504zm265.363 18a4.988 4.988 0 01-8.594 2.353 5.008 5.008 0 010-6.706A4.988 4.988 0 01580.943 48h18.659L607 40.59v2.82L600.421 50h-19.478zm-15.974 160a4.999 4.999 0 01-1.932 3.027 4.987 4.987 0 01-6.662-.674 5.006 5.006 0 010-6.706 4.987 4.987 0 016.662-.674 4.999 4.999 0 011.932 3.027h26.057v-71.41l15.974-16v2.82l-13.977 14V210h-28.054zm-207.658 32a4.999 4.999 0 01-1.932 3.027 4.986 4.986 0 01-6.661-.674 5.002 5.002 0 013.201-8.328 4.986 4.986 0 013.46.948 4.999 4.999 0 011.932 3.027h10.084v-22.59L344.023 194h-18.659a4.999 4.999 0 01-1.932 3.027 4.988 4.988 0 01-6.662-.674 5.007 5.007 0 010-6.706 4.988 4.988 0 016.662-.674 4.999 4.999 0 011.932 3.027h19.478l24.549 24.59V242h-12.08zm149.953 14a5 5 0 011.933-3.027 4.984 4.984 0 016.661.674 5.002 5.002 0 01-3.201 8.328 4.984 4.984 0 01-3.46-.948 5 5 0 01-1.933-3.027H399.342v-56.6L360.007 162h-18.669a5 5 0 01-1.933 3.027 4.984 4.984 0 01-6.661-.674 5.002 5.002 0 013.201-8.328 4.984 4.984 0 013.46.948 5 5 0 011.933 3.027h19.468l40.533 40.6V256h105.925zm-149.953 2a4.999 4.999 0 01-1.932 3.027 4.986 4.986 0 01-6.661-.674 5.002 5.002 0 013.201-8.328 4.986 4.986 0 013.46.948 4.999 4.999 0 011.932 3.027h26.057v-46.59L352.01 178h-26.646a4.999 4.999 0 01-1.932 3.027 4.988 4.988 0 01-6.662-.674 5.007 5.007 0 010-6.706 4.988 4.988 0 016.662-.674 4.999 4.999 0 011.932 3.027h27.465l32.536 32.59V258h-28.054zM337.444 41.41L312.895 66H303.5v-2h8.576l23.371-23.41V0h1.997v41.41zM305.497 300.1a4.996 4.996 0 013.893 3.9h-2.066a2.998 2.998 0 00-3.824-1.83V256h17.97v48h-1.996v-46h-13.977v42.1zm31.947 3.9h-1.997v-62H303.5v-2h33.944v64zM303.5 18v-2h15.974V0h1.996v18H303.5zm289.523-2H607v2h-15.974V0h1.997v16zm-31.947 288h-1.997v-14h-13.977v14h-1.997v-16h17.971v16zM303.5 92.1a5.004 5.004 0 015.501 2.761A5.01 5.01 0 01309.49 97a5.013 5.013 0 01-1.834 3.874 4.994 4.994 0 01-4.156 1.026v-2.07a2.986 2.986 0 002.725-.382A2.996 2.996 0 00307.489 97a3.004 3.004 0 00-2.58-2.971 2.993 2.993 0 00-1.409.141V92.1zM383.368 272h1.997v32h-1.997v-32zm37.838 32h-2.067a2.996 2.996 0 00-4.556-1.453 3.002 3.002 0 00-1.094 1.453h-2.067a5.004 5.004 0 011.733-2.876 4.988 4.988 0 018.051 2.876zM309.39 0c.16.81.119 1.645-.12 2.435-.24.789-.67 1.507-1.252 2.09A5.007 5.007 0 01303.5 5.9V3.83a2.99 2.99 0 003.119-.706A3.003 3.003 0 00307.324 0h2.066zm293.716 0h2.067A3.006 3.006 0 00607 3.83V5.9a4.987 4.987 0 01-3.167-2.142A5.004 5.004 0 01603.106 0zM607 300.1v2.07a2.987 2.987 0 00-1.827 1.83h-2.067a5.005 5.005 0 013.894-3.9zM400.34 100a2.994 2.994 0 002.996-3 3.013 3.013 0 00-.878-2.121A2.993 2.993 0 00397.345 97a3.002 3.002 0 002.995 3zm0-16a3.002 3.002 0 000-6 3.002 3.002 0 000 6zm15.974 16a2.99 2.99 0 002.767-1.852 2.995 2.995 0 000-2.296 2.992 2.992 0 00-4.885-.973 3.005 3.005 0 000 4.242 2.994 2.994 0 002.118.879zm15.974 16c.794 0 1.556-.316 2.118-.879a3.003 3.003 0 000-4.242 2.993 2.993 0 00-5.113 2.121 2.999 2.999 0 002.995 3zm0 16c.794 0 1.556-.316 2.118-.879a3.003 3.003 0 000-4.242 2.993 2.993 0 00-5.113 2.121 2.999 2.999 0 002.995 3zm-47.921 32c.794 0 1.556-.316 2.118-.879a3.003 3.003 0 000-4.242 2.993 2.993 0 00-5.113 2.121 2.999 2.999 0 002.995 3zm15.973 16a3 3 0 000-6 3 3 0 000 6zm31.948 48c.794 0 1.556-.316 2.118-.879a3.003 3.003 0 000-4.242 2.993 2.993 0 00-5.113 2.121 2.999 2.999 0 002.995 3zm-15.974 16a2.999 2.999 0 002.995-3 2.999 2.999 0 00-2.995-3c-.794 0-1.556.316-2.118.879a3.003 3.003 0 000 4.242 2.993 2.993 0 002.118.879zm31.948-16a3 3 0 000-6 3 3 0 000 6zm0-32a3 3 0 000-6 3 3 0 000 6zm15.973 32a2.999 2.999 0 002.995-3 2.999 2.999 0 00-2.995-3c-.794 0-1.556.316-2.118.879a3.003 3.003 0 000 4.242 2.993 2.993 0 002.118.879zm31.948 16a3 3 0 000-6 2.999 2.999 0 00-2.995 3 2.999 2.999 0 002.995 3zm0-16a3 3 0 000-6 2.999 2.999 0 00-2.995 3 2.999 2.999 0 002.995 3zm-15.974-64c.794 0 1.556-.316 2.118-.879a3.003 3.003 0 000-4.242 2.993 2.993 0 00-5.113 2.121 2.999 2.999 0 002.995 3zm15.974 0a3 3 0 000-6 2.999 2.999 0 00-2.995 3 2.999 2.999 0 002.995 3zm15.973 96a2.999 2.999 0 002.995-3 2.999 2.999 0 00-2.995-3c-.794 0-1.556.316-2.118.879a3.003 3.003 0 000 4.242 2.993 2.993 0 002.118.879zm0 16a2.999 2.999 0 002.995-3 2.999 2.999 0 00-2.995-3c-.794 0-1.556.316-2.118.879a3.003 3.003 0 000 4.242 2.993 2.993 0 002.118.879zm15.974 16c.794 0 1.556-.316 2.118-.879a3.003 3.003 0 000-4.242 2.993 2.993 0 00-5.113 2.121 2.999 2.999 0 002.995 3zm15.974-144a3 3 0 000-6 2.999 2.999 0 00-2.995 3 2.999 2.999 0 002.995 3zm0 32a3 3 0 000-6 2.999 2.999 0 00-2.995 3 2.999 2.999 0 002.995 3zm15.973-32a2.999 2.999 0 002.995-3 2.999 2.999 0 00-2.995-3c-.794 0-1.556.316-2.118.879a3.003 3.003 0 000 4.242 2.993 2.993 0 002.118.879zm15.974-16a2.999 2.999 0 002.995-3 2.999 2.999 0 00-2.995-3 2.999 2.999 0 00-2.995 3 2.999 2.999 0 002.995 3zm-95.842 0c.794 0 1.556-.316 2.118-.879a3.003 3.003 0 000-4.242 2.993 2.993 0 00-5.113 2.121 2.999 2.999 0 002.995 3zm0 16c.794 0 1.556-.316 2.118-.879a3.003 3.003 0 000-4.242 2.993 2.993 0 00-5.113 2.121 2.999 2.999 0 002.995 3zm15.974-32a3 3 0 000-6 2.999 2.999 0 00-2.995 3 2.999 2.999 0 002.995 3zm95.842 0c.794 0 1.556-.316 2.118-.879a3.003 3.003 0 000-4.242A2.993 2.993 0 00589.03 113a2.999 2.999 0 002.995 3zm-15.974-64a2.994 2.994 0 002.995-3 3 3 0 00-2.995-3 2.994 2.994 0 00-2.995 3 3 3 0 002.995 3zm15.974-16a2.994 2.994 0 002.995-3 2.994 2.994 0 10-5.99 0 3 3 0 002.995 3zm-31.948 0a3 3 0 000-6 2.994 2.994 0 00-2.995 3 2.994 2.994 0 002.995 3zm0-16a3.001 3.001 0 000-6 2.994 2.994 0 00-2.995 3 2.994 2.994 0 002.995 3zm-15.973 0a3.002 3.002 0 000-6 3.001 3.001 0 000 6zm-15.974 0a2.994 2.994 0 002.995-3 2.994 2.994 0 10-5.99 0 3.001 3.001 0 002.995 3zm-15.974 0a3.001 3.001 0 000-6 2.994 2.994 0 00-2.995 3 2.994 2.994 0 002.995 3zM352.419 36a3 3 0 000-6 3.002 3.002 0 000 6zm-31.947 0a2.994 2.994 0 002.995-3 3 3 0 00-2.995-3 2.994 2.994 0 00-2.995 3 2.994 2.994 0 002.995 3zm31.947 16a3 3 0 000-6 3.002 3.002 0 000 6zm-15.973 16a2.994 2.994 0 002.995-3 2.994 2.994 0 10-5.99 0 3.001 3.001 0 002.995 3zm15.973-48a3.001 3.001 0 000-6 3.002 3.002 0 000 6zm0 240a2.999 2.999 0 002.995-3 2.999 2.999 0 00-2.995-3 3 3 0 000 6zm15.974 32a2.999 2.999 0 002.995-3 2.999 2.999 0 00-2.995-3c-.794 0-1.556.316-2.118.879a3.003 3.003 0 000 4.242 2.993 2.993 0 002.118.879zm-15.974-64a2.999 2.999 0 002.995-3 2.999 2.999 0 00-2.995-3 3 3 0 000 6zm0 16a2.999 2.999 0 002.995-3 2.999 2.999 0 00-2.995-3 3 3 0 000 6zm-15.973-32c.794 0 1.556-.316 2.118-.879a3.003 3.003 0 000-4.242 2.993 2.993 0 00-5.113 2.121 2.999 2.999 0 002.995 3zm79.868-176a2.994 2.994 0 002.995-3 3 3 0 00-2.995-3 2.994 2.994 0 00-2.995 3 2.994 2.994 0 002.995 3zm15.974 0a2.994 2.994 0 002.995-3 2.994 2.994 0 10-5.99 0 3 3 0 002.995 3zm-15.974-16a2.994 2.994 0 002.995-3 3.001 3.001 0 00-2.995-3 2.994 2.994 0 00-2.995 3 2.994 2.994 0 002.995 3zm31.948 48a3.002 3.002 0 000-6 3.002 3.002 0 000 6zm15.973-16a3 3 0 000-6 2.994 2.994 0 00-2.995 3 2.994 2.994 0 002.995 3zm0-32a3.001 3.001 0 000-6 2.994 2.994 0 00-2.995 3 2.994 2.994 0 002.995 3zm111.816 176a2.999 2.999 0 002.995-3 2.999 2.999 0 00-2.995-3 2.999 2.999 0 00-2.995 3 2.999 2.999 0 002.995 3zm-15.974 16a2.999 2.999 0 002.995-3 2.999 2.999 0 00-2.995-3c-.794 0-1.556.316-2.118.879a3.003 3.003 0 000 4.242 2.993 2.993 0 002.118.879zm0 16a2.999 2.999 0 002.995-3 2.999 2.999 0 00-2.995-3c-.794 0-1.556.316-2.118.879a3.003 3.003 0 000 4.242 2.993 2.993 0 002.118.879zm0 16a2.999 2.999 0 002.995-3 2.999 2.999 0 00-2.995-3c-.794 0-1.556.316-2.118.879a3.003 3.003 0 000 4.242 2.993 2.993 0 002.118.879zm-239.605-64a2.999 2.999 0 002.995-3 2.999 2.999 0 00-2.995-3c-.794 0-1.556.316-2.118.879a3.003 3.003 0 000 4.242 2.993 2.993 0 002.118.879zm0 16a2.999 2.999 0 002.995-3 2.999 2.999 0 00-2.995-3c-.794 0-1.556.316-2.118.879a3.003 3.003 0 000 4.242 2.993 2.993 0 002.118.879zm0-32a2.999 2.999 0 002.995-3 2.999 2.999 0 00-2.995-3c-.794 0-1.556.316-2.118.879a3.003 3.003 0 000 4.242 2.993 2.993 0 002.118.879zm15.974 0c.794 0 1.556-.316 2.118-.879a3.003 3.003 0 000-4.242 2.993 2.993 0 00-5.113 2.121 2.999 2.999 0 002.995 3zm-15.974-80a2.994 2.994 0 002.995-3 3.001 3.001 0 00-2.995-3 2.994 2.994 0 00-2.995 3 2.994 2.994 0 002.995 3zm31.947 64a2.999 2.999 0 002.995-3 2.999 2.999 0 00-2.995-3 3 3 0 000 6zm15.974-16a2.999 2.999 0 002.995-3 2.999 2.999 0 00-2.995-3c-.794 0-1.556.316-2.118.879a3.003 3.003 0 000 4.242 2.993 2.993 0 002.118.879z" fill="url(#paint1_linear)"/><path d="M651.027 224a5.005 5.005 0 011.933-3.027 4.984 4.984 0 016.661.674 5.002 5.002 0 01-3.201 8.328 4.984 4.984 0 01-3.46-.948 5.005 5.005 0 01-1.933-3.027H607v-2h44.027zm159.737 48a5 5 0 011.933-3.027 4.984 4.984 0 016.661.674 5.002 5.002 0 01-3.201 8.328 4.984 4.984 0 01-3.46-.948 5 5 0 01-1.933-3.027H688.865v-2h121.899zm57.705-46a4.999 4.999 0 01-1.932 3.027 4.987 4.987 0 01-6.662-.674 5.006 5.006 0 010-6.706 4.987 4.987 0 016.662-.674 4.999 4.999 0 011.932 3.027H910.5v2h-42.031zm0 16a4.999 4.999 0 01-1.932 3.027 4.987 4.987 0 01-6.662-.674 5.006 5.006 0 010-6.706 4.987 4.987 0 016.662-.674 4.999 4.999 0 011.932 3.027H910.5v2h-42.031zm6.19-114a4.999 4.999 0 011.932-3.027 4.988 4.988 0 016.662.674 5.007 5.007 0 010 6.706 4.988 4.988 0 01-6.662.674 4.999 4.999 0 01-1.932-3.027h-86.058a5 5 0 01-1.933 3.027 4.984 4.984 0 01-6.661-.674 5.002 5.002 0 013.201-8.328 4.984 4.984 0 013.46.948 5 5 0 011.933 3.027h86.058zM619.08 80a5.002 5.002 0 011.933-3.027 4.984 4.984 0 016.661.674 5.008 5.008 0 010 6.706 4.984 4.984 0 01-6.661.674A5.002 5.002 0 01619.08 82H607v-2h12.08zm185.495 34a5.005 5.005 0 01-1.933 3.027 4.984 4.984 0 01-6.661-.674 5.002 5.002 0 013.201-8.328 4.984 4.984 0 013.46.948 5.005 5.005 0 011.933 3.027h86.058a4.999 4.999 0 011.932-3.027 4.987 4.987 0 016.662.674 5.007 5.007 0 010 6.706 4.987 4.987 0 01-6.662.674 4.999 4.999 0 01-1.932-3.027h-86.058zm60.001-101.9a4.99 4.99 0 013.022 1.936 5.009 5.009 0 01-.673 6.672 4.989 4.989 0 01-8.314-3.206 5.009 5.009 0 01.946-3.466 4.99 4.99 0 013.022-1.936V0h1.997v12.1zm-63.895 208a4.992 4.992 0 013.022 1.936 5.009 5.009 0 01-.673 6.672 4.984 4.984 0 01-6.695 0 5 5 0 01-.673-6.672 4.992 4.992 0 013.022-1.936v-54.2a4.992 4.992 0 01-3.022-1.936 5.009 5.009 0 01.673-6.672 4.989 4.989 0 018.314 3.206 5.009 5.009 0 01-.946 3.466 4.992 4.992 0 01-3.022 1.936v54.2zm47.921-198.2V80H910.5v2h-63.895V21.9a4.99 4.99 0 01-3.022-1.936 5.009 5.009 0 01.673-6.672 4.989 4.989 0 018.314 3.207 5.009 5.009 0 01-.946 3.465 4.99 4.99 0 01-3.022 1.936zm15.974 16V64H910.5v2h-47.921V37.9a4.99 4.99 0 01-3.022-1.936 5.009 5.009 0 01.673-6.672 4.984 4.984 0 016.695 0 5.004 5.004 0 01-2.349 8.608zm-127.79 96V208h15.974v12.1a4.992 4.992 0 013.022 1.936 5.009 5.009 0 01-.673 6.672 4.984 4.984 0 01-6.695 0 5 5 0 01-.673-6.672 4.992 4.992 0 013.022-1.936V210h-15.974v-76.1a4.992 4.992 0 01-3.022-1.936 5.009 5.009 0 01.673-6.672 4.989 4.989 0 018.314 3.206 4.998 4.998 0 01-3.968 5.402zm-5.89-21.9a4.999 4.999 0 011.932-3.027 4.988 4.988 0 016.662.674 5.007 5.007 0 010 6.706 4.988 4.988 0 01-6.662.674 4.999 4.999 0 01-1.932-3.027h-10.084v48h-28.053a5 5 0 01-1.933 3.027 4.984 4.984 0 01-6.661-.674 5.002 5.002 0 013.201-8.328 4.984 4.984 0 013.46.948 5 5 0 011.933 3.027h26.057v-48h12.08zm-6.19 130a4.999 4.999 0 01-1.932 3.027 4.988 4.988 0 01-6.662-.674 5.007 5.007 0 010-6.706 4.988 4.988 0 016.662-.674 4.999 4.999 0 011.932 3.027h58.005v-74.1a4.991 4.991 0 01-3.023-1.936 5.009 5.009 0 01.673-6.672 4.989 4.989 0 018.314 3.206 4.998 4.998 0 01-3.968 5.402V242h-60.001zm-15.974-64a4.999 4.999 0 01-1.932 3.027 4.984 4.984 0 01-6.661-.674 5.002 5.002 0 013.201-8.328 4.984 4.984 0 013.46.948 4.999 4.999 0 011.932 3.027h12.08v48h10.084a4.999 4.999 0 011.932-3.027 4.988 4.988 0 016.662.674 5.007 5.007 0 010 6.706 4.988 4.988 0 01-6.662.674 4.999 4.999 0 01-1.932-3.027h-12.08v-48h-10.084zm-35.841 106.1a4.991 4.991 0 013.023 1.936 5.009 5.009 0 01-.673 6.672 4.989 4.989 0 01-8.314-3.206 4.997 4.997 0 013.968-5.402V274h-13.977v30h-1.997v-32h17.97v12.1zM842.712 176a4.999 4.999 0 011.932-3.027 4.986 4.986 0 016.661.674 5.002 5.002 0 01-3.201 8.328 4.986 4.986 0 01-3.46-.948 4.999 4.999 0 01-1.932-3.027h-10.084v94h47.921v32h-1.996v-30h-47.921v-98h12.08zm25.757-30a4.999 4.999 0 01-1.932 3.027 4.987 4.987 0 01-6.662-.674 5.006 5.006 0 010-6.706 4.987 4.987 0 016.662-.674 4.999 4.999 0 011.932 3.027h12.08v44.1a4.997 4.997 0 013.968 5.402 4.989 4.989 0 01-9.932 0 4.997 4.997 0 013.968-5.402V146h-10.084zm-63.894 96a5.005 5.005 0 01-1.933 3.027 4.984 4.984 0 01-6.661-.674 5.002 5.002 0 013.201-8.328 4.984 4.984 0 013.46.948 5.005 5.005 0 011.933 3.027h10.083v-80h15.974v-14h-42.031a5 5 0 01-1.933 3.027 4.984 4.984 0 01-6.661-.674 5.002 5.002 0 013.201-8.328 4.984 4.984 0 013.46.948 5 5 0 011.933 3.027h44.027v18h-15.973v80h-12.08zm86.058-210a5 5 0 011.932-3.027 4.987 4.987 0 016.662.674 5.008 5.008 0 010 6.706 4.987 4.987 0 01-6.662.674A5 5 0 01890.633 34h-12.08V0h1.996v32h10.084zm-185.794 69.9V146h-44.028a4.999 4.999 0 01-1.932 3.027 4.986 4.986 0 01-6.661-.674 5.002 5.002 0 013.201-8.328 4.986 4.986 0 013.46.948 4.999 4.999 0 011.932 3.027h42.031v-42.1a4.993 4.993 0 01-3.022-1.936 5.009 5.009 0 01.673-6.672 4.984 4.984 0 016.695 0 5.009 5.009 0 01.673 6.672 4.993 4.993 0 01-3.022 1.936zM660.811 34a5 5 0 01-1.932 3.027 4.986 4.986 0 01-6.661-.674 5.003 5.003 0 013.201-8.328 4.986 4.986 0 013.46.948A5 5 0 01660.811 32h26.057V0h1.997v34h-28.054zm60.001 3.9V66h-31.947v64h-12.08a4.999 4.999 0 01-1.932 3.027 4.988 4.988 0 01-6.662-.674 5.007 5.007 0 010-6.706 4.988 4.988 0 016.662-.674 4.999 4.999 0 011.932 3.027h10.083V64h31.948V37.9a4.998 4.998 0 01-3.968-5.401 4.989 4.989 0 019.933 0 5.009 5.009 0 01-.946 3.465 4.99 4.99 0 01-3.023 1.936zM708.732 82a5 5 0 01-1.932 3.027 4.984 4.984 0 01-6.661-.674 5.003 5.003 0 013.201-8.328 4.984 4.984 0 013.46.948A5 5 0 01708.732 80h26.057V37.9a4.99 4.99 0 01-3.022-1.936 5.009 5.009 0 01.673-6.672 4.989 4.989 0 018.314 3.206 4.998 4.998 0 01-3.968 5.402V82h-28.054zm15.974-64a4.988 4.988 0 01-8.594 2.353 5.008 5.008 0 010-6.706A4.988 4.988 0 01724.706 16h28.054v44.1a4.99 4.99 0 013.022 1.936 5.009 5.009 0 01-.673 6.672 4.984 4.984 0 01-6.695 0 5.009 5.009 0 01-.673-6.672 4.99 4.99 0 013.022-1.936V18h-26.057zm102.032 270a4.999 4.999 0 011.932-3.027 4.988 4.988 0 016.662.674 5.007 5.007 0 010 6.706 4.988 4.988 0 01-6.662.674 4.999 4.999 0 01-1.932-3.027H704.839v14h-1.997v-16h123.896zm21.864-138.1V160h15.974v34h-15.974v62h47.921v48h-1.997v-46h-47.921v-66h15.974v-30h-15.974v-12.1a4.992 4.992 0 01-3.022-1.936 5.009 5.009 0 01.673-6.672 4.989 4.989 0 018.314 3.206 5.009 5.009 0 01-.946 3.466 4.992 4.992 0 01-3.022 1.936zM660.811 18a5 5 0 01-1.932 3.027 4.986 4.986 0 01-6.661-.674 5.003 5.003 0 013.201-8.328 4.986 4.986 0 013.46.948A5 5 0 01660.811 16h10.084V2h-15.974V0h17.97v18h-12.08zm111.816 32a4.988 4.988 0 01-8.594 2.353 5.008 5.008 0 010-6.706A4.988 4.988 0 01772.627 48h26.057V0h49.918v2h-47.921v48h-28.054zM724.706 2a5.002 5.002 0 01-2.139 3.172 4.984 4.984 0 01-6.918-1.414A5.008 5.008 0 01714.922 0h2.067a3.007 3.007 0 00.381 2.73 3 3 0 002.444 1.266 2.99 2.99 0 002.444-1.266A3.007 3.007 0 00722.64 0h62.067v34h-17.97V21.9a4.998 4.998 0 01-3.968-5.401A5 5 0 01767.735 12c1.237 0 2.43.46 3.348 1.291a5.009 5.009 0 01.673 6.672 4.99 4.99 0 01-3.022 1.936V32h13.977V2h-58.005zm0 96a4.999 4.999 0 01-1.932 3.027 4.988 4.988 0 01-6.662-.674 5.007 5.007 0 010-6.706A4.988 4.988 0 01724.706 96h19.069l31.947-32h38.936V21.9a4.998 4.998 0 01-3.968-5.401A5 5 0 01815.656 12c1.237 0 2.43.46 3.348 1.291a5.004 5.004 0 01-2.349 8.608V66h-40.104l-31.948 32h-19.897zm28.054 90.1a4.992 4.992 0 013.022 1.936 5.009 5.009 0 01-.673 6.672 4.984 4.984 0 01-6.695 0 5 5 0 01-.673-6.672 4.992 4.992 0 013.022-1.936v-76.51L782.301 80h48.331V21.9a4.995 4.995 0 01-3.969-5.401 5.009 5.009 0 011.619-3.207 4.989 4.989 0 018.314 3.207 4.995 4.995 0 01-3.968 5.401V82H783.12l-30.36 30.41v75.69zm15.974 32a4.992 4.992 0 013.022 1.936 5.009 5.009 0 01-.673 6.672 4.989 4.989 0 01-8.314-3.206 4.998 4.998 0 013.968-5.402v-99.51L791.286 96h115.32c.196-.96.67-1.843 1.362-2.536A4.99 4.99 0 01910.5 92.1v2.07a3 3 0 00-1.45 4.564c.358.507.865.89 1.45 1.096v2.07a5.006 5.006 0 01-3.894-3.9H792.105l-23.371 23.41v98.69zm-143.764-64a4.997 4.997 0 013.969 5.402 5.01 5.01 0 01-1.619 3.206 4.989 4.989 0 01-8.314-3.206 4.997 4.997 0 013.968-5.402v-3.51l47.921-48V48h31.947V0h1.997v50h-31.948v55.41l-47.921 48v2.69zm31.948-102.2v43.51l-47.921 48V208h26.057a4.999 4.999 0 011.932-3.027 4.987 4.987 0 016.662.674 5.006 5.006 0 010 6.706 4.987 4.987 0 01-6.662.674 4.999 4.999 0 01-1.932-3.027H607v-65.41l47.921-48V53.9a4.99 4.99 0 01-3.022-1.936 5.009 5.009 0 01.673-6.672 4.984 4.984 0 016.695 0 5.009 5.009 0 01.673 6.672 4.99 4.99 0 01-3.022 1.936zm-15.974 16v19.51l-33.944 34v-2.82l31.947-32V69.9a4.99 4.99 0 01-3.022-1.936 5.009 5.009 0 01.673-6.672 4.989 4.989 0 018.314 3.207 5.003 5.003 0 01-3.968 5.401zM619.08 32a5.002 5.002 0 011.933-3.027 4.984 4.984 0 016.661.674 5.008 5.008 0 010 6.706 4.984 4.984 0 01-6.661.674A5.002 5.002 0 01619.08 34h-2.686L607 43.41V40.6l8.576-8.6h3.504zm265.363 18a4.988 4.988 0 01-8.594 2.353 5.008 5.008 0 010-6.706A4.988 4.988 0 01884.443 48h18.659l7.398-7.41v2.82L903.921 50h-19.478zm-15.974 160a4.999 4.999 0 01-1.932 3.027 4.987 4.987 0 01-6.662-.674 5.006 5.006 0 010-6.706 4.987 4.987 0 016.662-.674 4.999 4.999 0 011.932 3.027h26.057v-71.41l15.974-16v2.82l-13.977 14V210h-28.054zm-207.658 32a4.999 4.999 0 01-1.932 3.027 4.986 4.986 0 01-6.661-.674 5.002 5.002 0 013.201-8.328 4.986 4.986 0 013.46.948 4.999 4.999 0 011.932 3.027h10.084v-22.59L647.523 194h-18.659a4.999 4.999 0 01-1.932 3.027 4.988 4.988 0 01-6.662-.674 5.007 5.007 0 010-6.706 4.988 4.988 0 016.662-.674 4.999 4.999 0 011.932 3.027h19.478l24.549 24.59V242h-12.08zm149.953 14a5 5 0 011.933-3.027 4.984 4.984 0 016.661.674 5.002 5.002 0 01-3.201 8.328 4.984 4.984 0 01-3.46-.948 5 5 0 01-1.933-3.027H702.842v-56.6L663.507 162h-18.669a5 5 0 01-1.933 3.027 4.984 4.984 0 01-6.661-.674 5.002 5.002 0 013.201-8.328 4.984 4.984 0 013.46.948 5 5 0 011.933 3.027h19.468l40.533 40.6V256h105.925zm-149.953 2a4.999 4.999 0 01-1.932 3.027 4.986 4.986 0 01-6.661-.674 5.002 5.002 0 013.201-8.328 4.986 4.986 0 013.46.948 4.999 4.999 0 011.932 3.027h26.057v-46.59L655.51 178h-26.646a4.999 4.999 0 01-1.932 3.027 4.988 4.988 0 01-6.662-.674 5.007 5.007 0 010-6.706 4.988 4.988 0 016.662-.674 4.999 4.999 0 011.932 3.027h27.465l32.536 32.59V258h-28.054zM640.944 41.41L616.394 66H607v-2h8.576l23.371-23.41V0h1.997v41.41zM608.997 300.1a4.996 4.996 0 013.893 3.9h-2.066a2.998 2.998 0 00-3.824-1.83V256h17.97v48h-1.996v-46h-13.977v42.1zm31.947 3.9h-1.997v-62H607v-2h33.944v64zM607 18v-2h15.974V0h1.996v18H607zm289.523-2H910.5v2h-15.974V0h1.997v16zm-31.947 288h-1.997v-14h-13.977v14h-1.997v-16h17.971v16zM607 92.1a5.004 5.004 0 015.501 2.761A5.01 5.01 0 01612.99 97a4.999 4.999 0 01-5.99 4.9v-2.07a2.986 2.986 0 002.725-.382A2.996 2.996 0 00610.989 97a3.004 3.004 0 00-2.58-2.971 2.993 2.993 0 00-1.409.141V92.1zM686.868 272h1.997v32h-1.997v-32zm37.838 32h-2.066a2.991 2.991 0 00-4.557-1.453 3.002 3.002 0 00-1.094 1.453h-2.067a5.004 5.004 0 011.733-2.876 4.988 4.988 0 018.051 2.876zM612.89 0c.16.81.119 1.645-.12 2.435-.24.789-.67 1.507-1.252 2.09A5.007 5.007 0 01607 5.9V3.83a2.99 2.99 0 003.119-.706A3.003 3.003 0 00610.824 0h2.066zm293.716 0h2.067a3.006 3.006 0 001.827 3.83V5.9a4.987 4.987 0 01-3.167-2.142A5.004 5.004 0 01906.606 0zm3.894 300.1v2.07a2.987 2.987 0 00-1.827 1.83h-2.067a5.005 5.005 0 013.894-3.9zM703.84 100a2.994 2.994 0 002.996-3 2.996 2.996 0 00-.878-2.121A2.993 2.993 0 00700.845 97a3.002 3.002 0 002.995 3zm0-16a3.002 3.002 0 000-6 3.002 3.002 0 000 6zm15.974 16a2.99 2.99 0 002.767-1.852 2.995 2.995 0 000-2.296 2.992 2.992 0 00-4.885-.973 3.005 3.005 0 000 4.242 2.994 2.994 0 002.118.879zm15.974 16c.794 0 1.556-.316 2.118-.879a3.003 3.003 0 000-4.242 2.993 2.993 0 00-5.113 2.121 2.999 2.999 0 002.995 3zm0 16c.794 0 1.556-.316 2.118-.879a3.003 3.003 0 000-4.242 2.993 2.993 0 00-5.113 2.121 2.999 2.999 0 002.995 3zm-47.921 32c.794 0 1.556-.316 2.118-.879a3.003 3.003 0 000-4.242 2.993 2.993 0 00-5.113 2.121 2.999 2.999 0 002.995 3zm15.973 16a3 3 0 000-6 3 3 0 000 6zm31.948 48c.794 0 1.556-.316 2.118-.879a3.003 3.003 0 000-4.242 2.993 2.993 0 00-5.113 2.121 2.999 2.999 0 002.995 3zm-15.974 16a2.999 2.999 0 002.995-3 2.999 2.999 0 00-2.995-3c-.794 0-1.556.316-2.118.879a3.003 3.003 0 000 4.242 2.993 2.993 0 002.118.879zm31.948-16a3 3 0 000-6 3 3 0 000 6zm0-32a3 3 0 000-6 3 3 0 000 6zm15.973 32a2.999 2.999 0 002.995-3 2.999 2.999 0 00-2.995-3c-.794 0-1.556.316-2.118.879a3.003 3.003 0 000 4.242 2.993 2.993 0 002.118.879zm31.948 16a3 3 0 000-6 2.999 2.999 0 00-2.995 3 2.999 2.999 0 002.995 3zm0-16a3 3 0 000-6 2.999 2.999 0 00-2.995 3 2.999 2.999 0 002.995 3zm-15.974-64c.794 0 1.556-.316 2.118-.879a3.003 3.003 0 000-4.242 2.993 2.993 0 00-5.113 2.121 2.999 2.999 0 002.995 3zm15.974 0a3 3 0 000-6 2.999 2.999 0 00-2.995 3 2.999 2.999 0 002.995 3zm15.973 96a2.999 2.999 0 002.995-3 2.999 2.999 0 00-2.995-3c-.794 0-1.556.316-2.118.879a3.003 3.003 0 000 4.242 2.993 2.993 0 002.118.879zm0 16a2.999 2.999 0 002.995-3 2.999 2.999 0 00-2.995-3c-.794 0-1.556.316-2.118.879a3.003 3.003 0 000 4.242 2.993 2.993 0 002.118.879zm15.974 16c.794 0 1.556-.316 2.118-.879a3.003 3.003 0 000-4.242 2.993 2.993 0 00-5.113 2.121 2.999 2.999 0 002.995 3zm15.974-144a3 3 0 000-6 2.999 2.999 0 00-2.995 3 2.999 2.999 0 002.995 3zm0 32a3 3 0 000-6 2.999 2.999 0 00-2.995 3 2.999 2.999 0 002.995 3zm15.973-32a2.999 2.999 0 002.995-3 2.999 2.999 0 00-2.995-3c-.794 0-1.556.316-2.118.879a3.003 3.003 0 000 4.242 2.993 2.993 0 002.118.879zm15.974-16a2.999 2.999 0 002.995-3 2.999 2.999 0 00-2.995-3 2.999 2.999 0 00-2.995 3 2.999 2.999 0 002.995 3zm-95.842 0c.794 0 1.556-.316 2.118-.879a3.003 3.003 0 000-4.242 2.993 2.993 0 00-5.113 2.121 2.999 2.999 0 002.995 3zm0 16c.794 0 1.556-.316 2.118-.879a3.003 3.003 0 000-4.242 2.993 2.993 0 00-5.113 2.121 2.999 2.999 0 002.995 3zm15.974-32a3 3 0 000-6 2.999 2.999 0 00-2.995 3 2.999 2.999 0 002.995 3zm95.842 0c.794 0 1.556-.316 2.118-.879a3.003 3.003 0 000-4.242A2.993 2.993 0 00892.53 113a2.999 2.999 0 002.995 3zm-15.974-64a2.994 2.994 0 002.995-3 3 3 0 00-2.995-3 2.994 2.994 0 00-2.995 3 3 3 0 002.995 3zm15.974-16a2.994 2.994 0 002.995-3 2.994 2.994 0 10-5.99 0 3 3 0 002.995 3zm-31.948 0a3 3 0 000-6 2.994 2.994 0 00-2.995 3 2.994 2.994 0 002.995 3zm0-16a3.001 3.001 0 000-6 2.994 2.994 0 00-2.995 3 2.994 2.994 0 002.995 3zm-15.973 0a3.002 3.002 0 000-6 3.001 3.001 0 000 6zm-15.974 0a2.994 2.994 0 002.995-3 2.994 2.994 0 10-5.99 0 3.001 3.001 0 002.995 3zm-15.974 0a3.001 3.001 0 000-6 2.994 2.994 0 00-2.995 3 2.994 2.994 0 002.995 3zM655.919 36a3 3 0 000-6 3.002 3.002 0 000 6zm-31.947 0a2.994 2.994 0 002.995-3 3 3 0 00-2.995-3 2.994 2.994 0 00-2.995 3 3 3 0 002.995 3zm31.947 16a3 3 0 000-6 3.002 3.002 0 000 6zm-15.973 16a2.994 2.994 0 002.995-3 2.994 2.994 0 10-5.99 0 3.001 3.001 0 002.995 3zm15.973-48a3.001 3.001 0 000-6 3.002 3.002 0 000 6zm0 240a2.999 2.999 0 002.995-3 2.999 2.999 0 00-2.995-3 3 3 0 000 6zm15.974 32a2.999 2.999 0 002.995-3 2.999 2.999 0 00-2.995-3c-.794 0-1.556.316-2.118.879a3.003 3.003 0 000 4.242 2.993 2.993 0 002.118.879zm-15.974-64a2.999 2.999 0 002.995-3 2.999 2.999 0 00-2.995-3 3 3 0 000 6zm0 16a2.999 2.999 0 002.995-3 2.999 2.999 0 00-2.995-3 3 3 0 000 6zm-15.973-32c.794 0 1.556-.316 2.118-.879a3.003 3.003 0 000-4.242 2.993 2.993 0 00-5.113 2.121 2.999 2.999 0 002.995 3zm79.868-176a3 3 0 000-6 2.994 2.994 0 00-2.995 3 2.994 2.994 0 002.995 3zm15.974 0a2.994 2.994 0 002.995-3 2.994 2.994 0 10-5.99 0 3 3 0 002.995 3zm-15.974-16a3.001 3.001 0 000-6 2.994 2.994 0 00-2.995 3 2.994 2.994 0 002.995 3zm31.948 48a3.002 3.002 0 000-6 3.002 3.002 0 000 6zm15.973-16a3 3 0 000-6 2.994 2.994 0 00-2.995 3 2.994 2.994 0 002.995 3zm0-32a3.001 3.001 0 000-6 2.994 2.994 0 00-2.995 3 2.994 2.994 0 002.995 3zm111.816 176a2.999 2.999 0 002.995-3 2.999 2.999 0 00-2.995-3 2.999 2.999 0 00-2.995 3 2.999 2.999 0 002.995 3zm-15.974 16a2.999 2.999 0 002.995-3 2.999 2.999 0 00-2.995-3c-.794 0-1.556.316-2.118.879a3.003 3.003 0 000 4.242 2.993 2.993 0 002.118.879zm0 16a2.999 2.999 0 002.995-3 2.999 2.999 0 00-2.995-3c-.794 0-1.556.316-2.118.879a3.003 3.003 0 000 4.242 2.993 2.993 0 002.118.879zm0 16a2.999 2.999 0 002.995-3 2.999 2.999 0 00-2.995-3c-.794 0-1.556.316-2.118.879a3.003 3.003 0 000 4.242 2.993 2.993 0 002.118.879zm-239.605-64a2.999 2.999 0 002.995-3 2.999 2.999 0 00-2.995-3 2.999 2.999 0 00-2.995 3 2.999 2.999 0 002.995 3zm0 16a2.999 2.999 0 002.995-3 2.999 2.999 0 00-2.995-3 2.999 2.999 0 00-2.995 3 2.999 2.999 0 002.995 3zm0-32a2.999 2.999 0 002.995-3 2.999 2.999 0 00-2.995-3 2.999 2.999 0 00-2.995 3 2.999 2.999 0 002.995 3zm15.974 0c.794 0 1.556-.316 2.118-.879a3.003 3.003 0 000-4.242 2.993 2.993 0 00-5.113 2.121 2.999 2.999 0 002.995 3zm-15.974-80a2.994 2.994 0 002.995-3 3.001 3.001 0 00-2.995-3 2.994 2.994 0 00-2.995 3 3.001 3.001 0 002.995 3zm31.947 64a2.999 2.999 0 002.995-3 2.999 2.999 0 00-2.995-3 3 3 0 000 6zm15.974-16a2.999 2.999 0 002.995-3 2.999 2.999 0 00-2.995-3c-.794 0-1.556.316-2.118.879a3.003 3.003 0 000 4.242 2.993 2.993 0 002.118.879z" fill="url(#paint2_linear)"/><path d="M954.527 224a5.005 5.005 0 011.933-3.027 4.984 4.984 0 016.661.674 5.002 5.002 0 01-3.201 8.328 4.984 4.984 0 01-3.46-.948 5.005 5.005 0 01-1.933-3.027H910.5v-2h44.027zm159.733 48a5.006 5.006 0 011.94-3.027 4.977 4.977 0 013.46-.948 5.003 5.003 0 010 9.95 4.977 4.977 0 01-3.46-.948 5.006 5.006 0 01-1.94-3.027H992.365v-2h121.895zm57.71-46a5.036 5.036 0 01-1.93 3.027 4.991 4.991 0 01-3.46.948 5.003 5.003 0 010-9.95 4.991 4.991 0 013.46.948 5.036 5.036 0 011.93 3.027H1214v2h-42.03zm0 16a5.036 5.036 0 01-1.93 3.027 4.991 4.991 0 01-3.46.948 5.003 5.003 0 010-9.95 4.991 4.991 0 013.46.948 5.036 5.036 0 011.93 3.027H1214v2h-42.03zm6.19-114a5.036 5.036 0 011.93-3.027c1-.735 2.23-1.072 3.46-.948a5.003 5.003 0 010 9.95 4.991 4.991 0 01-3.46-.948 5.036 5.036 0 01-1.93-3.027h-86.06a5.036 5.036 0 01-1.93 3.027 4.991 4.991 0 01-3.46.948 5.003 5.003 0 010-9.95 4.991 4.991 0 013.46.948 5.036 5.036 0 011.93 3.027h86.06zM922.58 80a5.002 5.002 0 011.933-3.027 4.984 4.984 0 016.661.674 5.008 5.008 0 010 6.706 4.984 4.984 0 01-6.661.674A5.002 5.002 0 01922.58 82H910.5v-2h12.08zm185.49 34a4.948 4.948 0 01-1.93 3.027 4.977 4.977 0 01-3.46.948 5.003 5.003 0 010-9.95 4.977 4.977 0 013.46.948c1 .734 1.69 1.813 1.93 3.027h86.06a5.006 5.006 0 011.94-3.027 4.964 4.964 0 013.46-.948 5.003 5.003 0 010 9.95 4.964 4.964 0 01-3.46-.948 5.006 5.006 0 01-1.94-3.027h-86.06zm60.01-101.9a4.99 4.99 0 013.96 5.402 4.973 4.973 0 01-1.62 3.206 4.967 4.967 0 01-3.34 1.291c-1.24 0-2.43-.46-3.35-1.291a4.996 4.996 0 01-.67-6.672 4.983 4.983 0 013.02-1.936V0h2v12.1zm-63.9 208c1.21.248 2.29.938 3.02 1.936a4.996 4.996 0 01-7.37 6.672 5.009 5.009 0 01-1.61-3.206 4.99 4.99 0 013.96-5.402v-54.2a4.99 4.99 0 01-3.96-5.402c.12-1.232.7-2.375 1.61-3.206a4.992 4.992 0 016.7 0 4.996 4.996 0 01.67 6.672 4.984 4.984 0 01-3.02 1.936v54.2zm47.92-198.2V80h61.9v2h-63.89V21.9a4.99 4.99 0 01-3.97-5.401c.12-1.233.7-2.376 1.62-3.207a4.967 4.967 0 013.34-1.291c1.24 0 2.43.46 3.35 1.291a4.996 4.996 0 01.67 6.672 4.983 4.983 0 01-3.02 1.936zm15.98 16V64H1214v2h-47.92V37.9a4.983 4.983 0 01-3.02-1.936 4.996 4.996 0 014.02-7.963c1.23 0 2.43.46 3.34 1.291.92.831 1.5 1.974 1.62 3.206a4.99 4.99 0 01-3.96 5.402zm-127.79 96V208h15.97v12.1c1.21.248 2.29.938 3.02 1.936a4.996 4.996 0 01-7.37 6.672 5.068 5.068 0 01-1.62-3.206 5.047 5.047 0 01.95-3.466 4.984 4.984 0 013.02-1.936V210h-15.97v-76.1a4.984 4.984 0 01-3.02-1.936 4.996 4.996 0 017.37-6.672 5.009 5.009 0 011.61 3.206 4.99 4.99 0 01-3.96 5.402zm-5.89-21.9a4.948 4.948 0 011.93-3.027 4.977 4.977 0 013.46-.948 5.003 5.003 0 010 9.95 4.977 4.977 0 01-3.46-.948 4.948 4.948 0 01-1.93-3.027h-10.09v48h-28.051a5 5 0 01-1.933 3.027 4.984 4.984 0 01-6.661-.674 5.002 5.002 0 013.201-8.328 4.984 4.984 0 013.46.948 5 5 0 011.933 3.027h26.061v-48h12.08zm-6.19 130a5.006 5.006 0 01-1.94 3.027 4.977 4.977 0 01-3.46.948 5.003 5.003 0 010-9.95 4.977 4.977 0 013.46.948c1 .734 1.69 1.813 1.94 3.027h58v-74.1a4.984 4.984 0 01-3.02-1.936 5.047 5.047 0 01-.95-3.466 5.02 5.02 0 011.62-3.206 4.992 4.992 0 016.7 0 5.068 5.068 0 011.62 3.206 5.047 5.047 0 01-.95 3.466 4.984 4.984 0 01-3.02 1.936V242h-60zm-15.98-64a4.948 4.948 0 01-1.93 3.027 4.991 4.991 0 01-3.46.948 5.003 5.003 0 010-9.95 4.991 4.991 0 013.46.948c1 .734 1.69 1.813 1.93 3.027h12.08v48h10.09a4.948 4.948 0 011.93-3.027 4.977 4.977 0 013.46-.948 5.003 5.003 0 010 9.95 4.977 4.977 0 01-3.46-.948 4.948 4.948 0 01-1.93-3.027h-12.08v-48h-10.09zm-35.839 106.1a4.991 4.991 0 013.023 1.936 5.009 5.009 0 01-.673 6.672 4.989 4.989 0 01-8.314-3.206 4.997 4.997 0 013.968-5.402V274h-13.977v30h-1.997v-32h17.97v12.1zM1146.21 176a5.036 5.036 0 011.93-3.027 4.993 4.993 0 016.67.674 4.994 4.994 0 011.28 3.353c0 1.239-.45 2.434-1.28 3.353a4.993 4.993 0 01-8.6-2.353h-10.08v94h47.92v32h-2v-30h-47.92v-98h12.08zm25.76-30a5.036 5.036 0 01-1.93 3.027 4.991 4.991 0 01-3.46.948 5.003 5.003 0 010-9.95 4.991 4.991 0 013.46.948 5.036 5.036 0 011.93 3.027h12.08v44.1c1.21.248 2.29.938 3.02 1.936s1.07 2.233.95 3.466a5.02 5.02 0 01-1.62 3.206 4.992 4.992 0 01-6.7 0 5.068 5.068 0 01-1.62-3.206 5.047 5.047 0 01.95-3.466 4.984 4.984 0 013.02-1.936V146h-10.08zm-63.9 96a4.948 4.948 0 01-1.93 3.027 4.977 4.977 0 01-3.46.948 5.003 5.003 0 010-9.95 4.977 4.977 0 013.46.948c1 .734 1.69 1.813 1.93 3.027h10.09v-80h15.97v-14h-42.03a5.036 5.036 0 01-1.93 3.027 4.991 4.991 0 01-3.46.948 5.003 5.003 0 010-9.95 4.991 4.991 0 013.46.948 5.036 5.036 0 011.93 3.027h44.03v18h-15.98v80h-12.08zm86.06-210a5.007 5.007 0 011.94-3.027 4.964 4.964 0 013.46-.948 5.004 5.004 0 013.2 8.328 4.99 4.99 0 01-3.2 1.622 4.964 4.964 0 01-3.46-.948 5.007 5.007 0 01-1.94-3.027h-12.08V0h2v32h10.08zm-185.79 69.9V146h-44.029a4.999 4.999 0 01-1.932 3.027 4.986 4.986 0 01-6.661-.674 5.002 5.002 0 013.201-8.328 4.986 4.986 0 013.46.948 4.999 4.999 0 011.932 3.027h42.029v-42.1a4.985 4.985 0 01-3.02-1.936 5.047 5.047 0 01-.95-3.465 5.067 5.067 0 011.62-3.207 4.992 4.992 0 016.7 0 5.02 5.02 0 011.62 3.207 5.047 5.047 0 01-.95 3.465 4.985 4.985 0 01-3.02 1.936zM964.311 34a5 5 0 01-1.932 3.027 4.986 4.986 0 01-6.661-.674 5.003 5.003 0 013.201-8.328 4.986 4.986 0 013.46.948A5 5 0 01964.311 32h26.057V0h1.997v34h-28.054zm59.999 3.9V66h-31.945v64h-12.08a4.999 4.999 0 01-1.932 3.027 4.988 4.988 0 01-6.662-.674 5.007 5.007 0 010-6.706 4.988 4.988 0 016.662-.674 4.999 4.999 0 011.932 3.027h10.083V64h31.952V37.9a4.99 4.99 0 01-3.97-5.401c.12-1.233.7-2.376 1.62-3.207a4.967 4.967 0 013.34-1.291c1.24 0 2.43.46 3.35 1.291.92.831 1.5 1.974 1.62 3.206a4.946 4.946 0 01-.95 3.466 4.983 4.983 0 01-3.02 1.936zM1012.23 82a4.991 4.991 0 01-5.39 3.975 5.004 5.004 0 01-3.2-8.328 4.99 4.99 0 013.2-1.622 4.991 4.991 0 015.39 3.975h26.06V37.9a4.983 4.983 0 01-3.02-1.936 4.996 4.996 0 017.37-6.672c.91.831 1.49 1.974 1.61 3.206a4.99 4.99 0 01-3.96 5.402V82h-28.06zm15.98-64a5.007 5.007 0 01-5.4 3.975 5.004 5.004 0 01-3.2-8.328 4.99 4.99 0 013.2-1.622 5.007 5.007 0 015.4 3.975h28.05v44.1c1.21.248 2.29.938 3.02 1.936a4.996 4.996 0 01-7.37 6.672 5.067 5.067 0 01-1.62-3.207 5.047 5.047 0 01.95-3.465 4.983 4.983 0 013.02-1.936V18h-26.05zm102.03 270a4.991 4.991 0 015.39-3.975 5.003 5.003 0 010 9.95 4.991 4.991 0 01-5.39-3.975h-121.9v14h-2v-16h123.9zm21.86-138.1V160h15.98v34h-15.98v62h47.92v48h-1.99v-46h-47.92v-66h15.97v-30h-15.97v-12.1a4.99 4.99 0 01-3.97-5.402c.12-1.232.7-2.375 1.62-3.206a4.967 4.967 0 013.34-1.291c1.24 0 2.43.46 3.35 1.291a4.996 4.996 0 01.67 6.672 4.984 4.984 0 01-3.02 1.936zM964.311 18a5 5 0 01-1.932 3.027 4.986 4.986 0 01-6.661-.674 5.003 5.003 0 013.201-8.328 4.986 4.986 0 013.46.948A5 5 0 01964.311 16h10.084V2h-15.974V0h17.97v18h-12.08zm111.819 32a5.007 5.007 0 01-1.94 3.027 4.964 4.964 0 01-3.46.948 5.004 5.004 0 01-3.2-8.328 4.99 4.99 0 013.2-1.622 4.964 4.964 0 013.46.948c1 .734 1.69 1.813 1.94 3.027h26.05V0h49.92v2h-47.92v48h-28.05zm-47.92-48a5.123 5.123 0 01-.76 1.799 5.12 5.12 0 01-1.38 1.373 4.995 4.995 0 01-6.92-1.414 5.032 5.032 0 01-.73-3.758h2.07c-.16.452-.21.936-.14 1.411.06.475.24.927.52 1.319a2.99 2.99 0 002.44 1.266c.48 0 .95-.115 1.38-.336.43-.22.79-.54 1.07-.93.27-.392.45-.844.52-1.319s.02-.959-.14-1.411h62.07v34h-17.97V21.9a4.99 4.99 0 01-3.97-5.401c.12-1.233.7-2.376 1.62-3.207a4.992 4.992 0 013.35-1.291c1.23 0 2.43.46 3.34 1.291.92.831 1.5 1.974 1.62 3.207a4.99 4.99 0 01-3.97 5.401V32h13.98V2h-58zm0 96a5.006 5.006 0 01-1.94 3.027 4.977 4.977 0 01-3.46.948 5.003 5.003 0 010-9.95 5.007 5.007 0 015.4 3.975h19.06l31.95-32h38.94V21.9a4.983 4.983 0 01-3.02-1.936 4.996 4.996 0 014.02-7.963c1.23 0 2.43.46 3.34 1.291.92.831 1.5 1.974 1.62 3.207a4.99 4.99 0 01-3.97 5.401V66h-40.1l-31.95 32h-19.89zm28.05 90.1c1.21.248 2.29.938 3.02 1.936a4.996 4.996 0 01-7.37 6.672 5.068 5.068 0 01-1.62-3.206 5.047 5.047 0 01.95-3.466 4.984 4.984 0 013.02-1.936v-76.51L1085.8 80h48.33V21.9a4.983 4.983 0 01-3.02-1.936 5.047 5.047 0 01-.95-3.465 5.02 5.02 0 011.62-3.207 4.992 4.992 0 016.7 0 5.02 5.02 0 011.62 3.207 5.047 5.047 0 01-.95 3.465 4.983 4.983 0 01-3.02 1.936V82h-49.51l-30.36 30.41v75.69zm15.97 32a4.99 4.99 0 013.97 5.402 4.974 4.974 0 01-1.62 3.206 4.967 4.967 0 01-3.34 1.291c-1.24 0-2.43-.46-3.35-1.291a4.974 4.974 0 01-1.62-3.206 4.99 4.99 0 013.97-5.402v-99.51L1094.79 96h115.32c.19-.96.67-1.843 1.36-2.536A4.971 4.971 0 011214 92.1v2.07a2.991 2.991 0 00-2 2.83 2.991 2.991 0 002 2.83v2.07a4.967 4.967 0 01-2.53-1.364 4.973 4.973 0 01-1.36-2.536h-114.5l-23.38 23.41v98.69zm-143.76-64a4.997 4.997 0 013.969 5.402 5.01 5.01 0 01-1.619 3.206 4.989 4.989 0 01-8.314-3.206 4.997 4.997 0 013.968-5.402v-3.51l47.921-48V48h31.945V0h2v50h-31.949v55.41l-47.921 48v2.69zm31.948-102.2v43.51l-47.921 48V208h26.057a4.999 4.999 0 011.932-3.027 4.987 4.987 0 016.662.674 5.006 5.006 0 010 6.706 4.987 4.987 0 01-6.662.674 4.999 4.999 0 01-1.932-3.027H910.5v-65.41l47.921-48V53.9a4.99 4.99 0 01-3.022-1.936 5.009 5.009 0 01.673-6.672 4.984 4.984 0 016.695 0 5.009 5.009 0 01.673 6.672 4.99 4.99 0 01-3.022 1.936zm-15.974 16v19.51l-33.944 34v-2.82l31.947-32V69.9a4.99 4.99 0 01-3.022-1.936 5.009 5.009 0 01.673-6.672 4.989 4.989 0 018.314 3.207 4.998 4.998 0 01-3.968 5.401zM922.58 32a5.002 5.002 0 011.933-3.027 4.984 4.984 0 016.661.674 5.008 5.008 0 010 6.706 4.984 4.984 0 01-6.661.674A5.002 5.002 0 01922.58 34h-2.685l-9.395 9.41V40.6l8.576-8.6h3.504zm265.36 18a4.991 4.991 0 01-5.39 3.975 5.004 5.004 0 01-3.2-8.328 4.99 4.99 0 013.2-1.622 4.991 4.991 0 015.39 3.975h18.66l7.4-7.41v2.82l-6.58 6.59h-19.48zm-15.97 160a5.036 5.036 0 01-1.93 3.027 4.991 4.991 0 01-3.46.948 5.003 5.003 0 010-9.95 4.991 4.991 0 013.46.948 5.036 5.036 0 011.93 3.027h26.06v-71.41l15.97-16v2.82l-13.98 14V210h-28.05zm-207.659 32a4.999 4.999 0 01-1.932 3.027 4.986 4.986 0 01-6.661-.674 5.002 5.002 0 013.201-8.328 4.986 4.986 0 013.46.948 4.999 4.999 0 011.932 3.027h10.084v-22.59L951.023 194h-18.659a4.999 4.999 0 01-1.932 3.027 4.988 4.988 0 01-6.662-.674 5.007 5.007 0 010-6.706 4.988 4.988 0 016.662-.674 4.999 4.999 0 011.932 3.027h19.478l24.549 24.59V242h-12.08zm149.949 14a5.006 5.006 0 011.94-3.027 4.977 4.977 0 013.46-.948 5.003 5.003 0 010 9.95 4.977 4.977 0 01-3.46-.948 5.006 5.006 0 01-1.94-3.027h-107.92v-56.6L967.007 162h-18.669a5 5 0 01-1.933 3.027 4.984 4.984 0 01-6.661-.674 5.002 5.002 0 013.201-8.328 4.984 4.984 0 013.46.948 5 5 0 011.933 3.027h19.468l40.534 40.6V256h105.92zm-149.949 2a4.999 4.999 0 01-1.932 3.027 4.986 4.986 0 01-6.661-.674 5.002 5.002 0 013.201-8.328 4.986 4.986 0 013.46.948 4.999 4.999 0 011.932 3.027h26.057v-46.59L959.01 178h-26.646a4.999 4.999 0 01-1.932 3.027 4.988 4.988 0 01-6.662-.674 5.007 5.007 0 010-6.706 4.988 4.988 0 016.662-.674 4.999 4.999 0 011.932 3.027h27.465l32.536 32.59V258h-28.054zM944.444 41.41L919.895 66H910.5v-2h8.576l23.371-23.41V0h1.997v41.41zM912.497 300.1a4.996 4.996 0 013.893 3.9h-2.066a2.998 2.998 0 00-3.824-1.83V256h17.97v48h-1.996v-46h-13.977v42.1zm31.947 3.9h-1.997v-62H910.5v-2h33.944v64zM910.5 18v-2h15.974V0h1.996v18H910.5zm289.52-2H1214v2h-15.97V0h1.99v16zm-31.94 288h-2v-14h-13.98v14h-1.99v-16h17.97v16zM910.5 92.1a5.004 5.004 0 015.501 2.761A5.01 5.01 0 01916.49 97a4.999 4.999 0 01-5.99 4.9v-2.07a2.986 2.986 0 002.725-.382A2.996 2.996 0 00914.489 97a3.004 3.004 0 00-2.58-2.971 2.993 2.993 0 00-1.409.141V92.1zM990.368 272h1.997v32h-1.997v-32zm37.842 32h-2.07a3.056 3.056 0 00-1.09-1.453 3.028 3.028 0 00-1.74-.551c-.62 0-1.22.192-1.73.551-.5.359-.89.867-1.09 1.453h-2.07c.23-1.13.84-2.146 1.74-2.876a4.969 4.969 0 016.31 0c.89.73 1.51 1.746 1.74 2.876zM916.39 0c.16.81.119 1.645-.12 2.435-.24.789-.67 1.507-1.252 2.09A5.007 5.007 0 01910.5 5.9V3.83a2.99 2.99 0 003.119-.706A3.003 3.003 0 00914.324 0h2.066zm293.72 0h2.06c-.13.372-.19.766-.16 1.16.02.393.11.779.28 1.134.17.356.41.675.7.938.3.264.64.467 1.01.598V5.9a5.073 5.073 0 01-1.8-.755 5.018 5.018 0 01-1.37-1.387 4.938 4.938 0 01-.73-1.807 4.93 4.93 0 01.01-1.951zm3.89 300.1v2.07a3.031 3.031 0 00-1.83 1.83h-2.06c.19-.961.67-1.843 1.36-2.536a4.967 4.967 0 012.53-1.364zM1007.34 100c.39 0 .78-.078 1.15-.228.36-.151.69-.372.97-.65a3.015 3.015 0 00.88-2.121 3.015 3.015 0 00-1.85-2.773 3.002 3.002 0 00-3.27.65 3.003 3.003 0 00-.87 2.122c0 .796.31 1.559.87 2.121.56.563 1.33.879 2.12.879zm0-16a3.002 3.002 0 003-3 3.002 3.002 0 00-3-3c-.79 0-1.56.316-2.12.879a3.003 3.003 0 00-.87 2.121c0 .796.31 1.559.87 2.121.56.563 1.33.879 2.12.879zm15.97 16a2.972 2.972 0 002.12-.879 3.015 3.015 0 00.88-2.121 3.015 3.015 0 00-1.85-2.772 2.98 2.98 0 00-3.26.65 2.97 2.97 0 00-.88 2.122c0 .796.31 1.559.88 2.121a2.98 2.98 0 002.11.879zm15.98 16c.79 0 1.55-.316 2.12-.879a3 3 0 00.87-2.121 3 3 0 00-.87-2.121 3.018 3.018 0 00-2.12-.879c-.8 0-1.56.316-2.12.879a3.01 3.01 0 00-.88 2.121c0 .796.32 1.559.88 2.121.56.563 1.32.879 2.12.879zm0 16c.79 0 1.55-.316 2.12-.879a3 3 0 00.87-2.121 3 3 0 00-.87-2.121 3.018 3.018 0 00-2.12-.879c-.8 0-1.56.316-2.12.879a3.01 3.01 0 00-.88 2.121c0 .796.32 1.559.88 2.121.56.563 1.32.879 2.12.879zm-47.923 32c.794 0 1.556-.316 2.118-.879a3.003 3.003 0 000-4.242 2.993 2.993 0 00-5.113 2.121 2.999 2.999 0 002.995 3zm15.973 16a3 3 0 000-6 3 3 0 00-2.12.879 3 3 0 00-.87 2.121 3 3 0 00.87 2.121 3 3 0 002.12.879zm31.95 48c.79 0 1.55-.316 2.12-.879a3 3 0 00.87-2.121 3 3 0 00-.87-2.121 3.018 3.018 0 00-2.12-.879c-.8 0-1.56.316-2.12.879a3.01 3.01 0 00-.88 2.121c0 .796.32 1.559.88 2.121.56.563 1.32.879 2.12.879zm-15.98 16c.8 0 1.56-.316 2.12-.879a3.01 3.01 0 00.88-2.121 3.01 3.01 0 00-.88-2.121 2.984 2.984 0 00-4.23 0 2.968 2.968 0 00-.88 2.121c0 .796.31 1.559.88 2.121.56.563 1.32.879 2.11.879zm31.95-16c.8 0 1.56-.316 2.12-.879a3.01 3.01 0 00.88-2.121 3.01 3.01 0 00-.88-2.121 2.984 2.984 0 00-2.12-.879c-.79 0-1.55.316-2.12.879a3 3 0 00-.87 2.121 3 3 0 00.87 2.121c.57.563 1.33.879 2.12.879zm0-32c.8 0 1.56-.316 2.12-.879a3.01 3.01 0 00.88-2.121 3.01 3.01 0 00-.88-2.121 2.984 2.984 0 00-2.12-.879c-.79 0-1.55.316-2.12.879a3 3 0 00-.87 2.121 3 3 0 00.87 2.121c.57.563 1.33.879 2.12.879zm15.98 32c.79 0 1.55-.316 2.11-.879a3.01 3.01 0 00.88-2.121 3.01 3.01 0 00-.88-2.121 2.984 2.984 0 00-4.23 0 3.01 3.01 0 00-.88 2.121c0 .796.32 1.559.88 2.121.56.563 1.32.879 2.12.879zm31.94 16c.8 0 1.56-.316 2.12-.879a3.01 3.01 0 00.88-2.121 3.01 3.01 0 00-.88-2.121 2.984 2.984 0 00-2.12-.879c-.79 0-1.55.316-2.12.879a3 3 0 00-.87 2.121 3 3 0 00.87 2.121c.57.563 1.33.879 2.12.879zm0-16c.8 0 1.56-.316 2.12-.879a3.01 3.01 0 00.88-2.121 3.01 3.01 0 00-.88-2.121 2.984 2.984 0 00-2.12-.879c-.79 0-1.55.316-2.12.879a3 3 0 00-.87 2.121 3 3 0 00.87 2.121c.57.563 1.33.879 2.12.879zm-15.97-64a3 3 0 002.12-.879 3 3 0 00.87-2.121 3 3 0 00-.87-2.121 3 3 0 00-2.12-.879c-.8 0-1.56.316-2.12.879a3.01 3.01 0 00-.88 2.121c0 .796.32 1.559.88 2.121.56.563 1.32.879 2.12.879zm15.97 0c.8 0 1.56-.316 2.12-.879a3.01 3.01 0 00.88-2.121 3.01 3.01 0 00-.88-2.121 2.984 2.984 0 00-2.12-.879c-.79 0-1.55.316-2.12.879a3 3 0 00-.87 2.121 3 3 0 00.87 2.121c.57.563 1.33.879 2.12.879zm15.98 96c.79 0 1.55-.316 2.11-.879.57-.562.88-1.325.88-2.121s-.31-1.559-.88-2.121a2.984 2.984 0 00-4.23 0 3.01 3.01 0 00-.88 2.121c0 .796.32 1.559.88 2.121.56.563 1.32.879 2.12.879zm0 16c.79 0 1.55-.316 2.11-.879.57-.562.88-1.325.88-2.121s-.31-1.559-.88-2.121a2.984 2.984 0 00-4.23 0 3.01 3.01 0 00-.88 2.121c0 .796.32 1.559.88 2.121.56.563 1.32.879 2.12.879zm15.97 16a3 3 0 002.12-.879 3 3 0 00.87-2.121 3 3 0 00-.87-2.121 3 3 0 00-2.12-.879 3 3 0 000 6zm15.97-144c.8 0 1.56-.316 2.12-.879a3.01 3.01 0 00.88-2.121 3.01 3.01 0 00-.88-2.121 2.984 2.984 0 00-4.23 0 2.968 2.968 0 00-.88 2.121c0 .796.31 1.559.88 2.121.56.563 1.32.879 2.11.879zm0 32c.8 0 1.56-.316 2.12-.879a3.01 3.01 0 00.88-2.121 3.01 3.01 0 00-.88-2.121 2.984 2.984 0 00-4.23 0 2.968 2.968 0 00-.88 2.121c0 .796.31 1.559.88 2.121.56.563 1.32.879 2.11.879zm15.98-32c.79 0 1.55-.316 2.12-.879a3 3 0 00.87-2.121 3 3 0 00-.87-2.121 3.018 3.018 0 00-2.12-.879c-.8 0-1.56.316-2.12.879a3.01 3.01 0 00-.88 2.121c0 .796.32 1.559.88 2.121.56.563 1.32.879 2.12.879zm15.97-16c.8 0 1.56-.316 2.12-.879a3.01 3.01 0 00.88-2.121 3.01 3.01 0 00-.88-2.121 2.984 2.984 0 00-2.12-.879 3 3 0 00-2.12.879 3 3 0 00-.87 2.121 3 3 0 00.87 2.121 3 3 0 002.12.879zm-95.84 0a3 3 0 002.12-.879 3 3 0 00.87-2.121 3 3 0 00-.87-2.121 3 3 0 00-2.12-.879c-.8 0-1.56.316-2.12.879a3.01 3.01 0 00-.88 2.121c0 .796.32 1.559.88 2.121.56.563 1.32.879 2.12.879zm0 16a3 3 0 002.12-.879 3 3 0 00.87-2.121 3 3 0 00-.87-2.121 3 3 0 00-2.12-.879c-.8 0-1.56.316-2.12.879a3.01 3.01 0 00-.88 2.121c0 .796.32 1.559.88 2.121.56.563 1.32.879 2.12.879zm15.97-32c.8 0 1.56-.316 2.12-.879a3.01 3.01 0 00.88-2.121 3.01 3.01 0 00-.88-2.121 2.984 2.984 0 00-2.12-.879c-.79 0-1.55.316-2.12.879a3 3 0 00-.87 2.121 3 3 0 00.87 2.121c.57.563 1.33.879 2.12.879zm95.84 0c.8 0 1.56-.316 2.12-.879a3.01 3.01 0 00.88-2.121 3.01 3.01 0 00-.88-2.121 2.984 2.984 0 00-4.23 0 3.01 3.01 0 00-.88 2.121c0 .796.32 1.559.88 2.121.56.563 1.32.879 2.11.879zm-15.97-64c.8 0 1.56-.316 2.12-.879.56-.562.88-1.325.88-2.121s-.32-1.559-.88-2.121a2.985 2.985 0 00-2.12-.879c-.79 0-1.56.316-2.12.879a3.003 3.003 0 00-.87 2.121c0 .796.31 1.559.87 2.121.56.563 1.33.879 2.12.879zm15.97-16c.8 0 1.56-.316 2.12-.879.56-.562.88-1.325.88-2.121s-.32-1.559-.88-2.121a2.985 2.985 0 00-4.23 0 3.012 3.012 0 00-.88 2.121c0 .796.32 1.559.88 2.121a2.98 2.98 0 002.11.879zm-31.94 0c.79 0 1.55-.316 2.12-.879.56-.562.87-1.325.87-2.121s-.31-1.559-.87-2.121a3.02 3.02 0 00-2.12-.879c-.8 0-1.56.316-2.12.879a3.012 3.012 0 00-.88 2.121c0 .796.32 1.559.88 2.121.56.563 1.32.879 2.12.879zm0-16c.79 0 1.55-.316 2.12-.879.56-.562.87-1.325.87-2.121s-.31-1.559-.87-2.121a3.02 3.02 0 00-2.12-.879c-.8 0-1.56.316-2.12.879a3.012 3.012 0 00-.88 2.121c0 .796.32 1.559.88 2.121.56.563 1.32.879 2.12.879zm-15.98 0c.8 0 1.56-.316 2.12-.879.56-.562.88-1.325.88-2.121s-.32-1.559-.88-2.121a2.985 2.985 0 00-4.23 0 2.97 2.97 0 00-.88 2.121c0 .796.31 1.559.88 2.121a2.98 2.98 0 002.11.879zm-15.97 0c.79 0 1.56-.316 2.12-.879.56-.562.87-1.325.87-2.121s-.31-1.559-.87-2.121a3.002 3.002 0 00-2.12-.879 3.002 3.002 0 00-3 3 3.002 3.002 0 003 3zm-15.97 0c.79 0 1.55-.316 2.11-.879a2.97 2.97 0 00.88-2.121 2.97 2.97 0 00-.88-2.121 2.985 2.985 0 00-4.23 0 3.012 3.012 0 00-.88 2.121c0 .796.32 1.559.88 2.121.56.563 1.32.879 2.12.879zM959.419 36a3 3 0 000-6 3.002 3.002 0 000 6zm-31.947 0a2.994 2.994 0 002.995-3 3 3 0 00-2.995-3 2.994 2.994 0 00-2.995 3 2.994 2.994 0 002.995 3zm31.947 16a3 3 0 000-6 3.002 3.002 0 000 6zm-15.973 16a2.994 2.994 0 002.995-3 2.994 2.994 0 10-5.99 0 3.001 3.001 0 002.995 3zm15.973-48a3.001 3.001 0 000-6 3.002 3.002 0 000 6zm0 240a2.999 2.999 0 002.995-3 2.999 2.999 0 00-2.995-3 3 3 0 000 6zm15.974 32a2.999 2.999 0 002.995-3 2.999 2.999 0 00-2.995-3c-.794 0-1.556.316-2.118.879a3.003 3.003 0 000 4.242 2.993 2.993 0 002.118.879zm-15.974-64a2.999 2.999 0 002.995-3 2.999 2.999 0 00-2.995-3 3 3 0 000 6zm0 16a2.999 2.999 0 002.995-3 2.999 2.999 0 00-2.995-3 3 3 0 000 6zm-15.973-32c.794 0 1.556-.316 2.118-.879a3.003 3.003 0 000-4.242 2.993 2.993 0 00-5.113 2.121 2.999 2.999 0 002.995 3zm79.864-176c.8 0 1.56-.316 2.12-.879.56-.562.88-1.325.88-2.121s-.32-1.559-.88-2.121a2.985 2.985 0 00-4.23 0 2.97 2.97 0 00-.88 2.121c0 .796.31 1.559.88 2.121a2.98 2.98 0 002.11.879zm15.98 0c.79 0 1.55-.316 2.12-.879.56-.562.87-1.325.87-2.121s-.31-1.559-.87-2.121a3.02 3.02 0 00-2.12-.879c-.8 0-1.56.316-2.12.879a3.012 3.012 0 00-.88 2.121c0 .796.32 1.559.88 2.121.56.563 1.32.879 2.12.879zm-15.98-16c.8 0 1.56-.316 2.12-.879.56-.562.88-1.325.88-2.121s-.32-1.559-.88-2.121a2.985 2.985 0 00-4.23 0 2.97 2.97 0 00-.88 2.121c0 .796.31 1.559.88 2.121a2.98 2.98 0 002.11.879zm31.95 48c.8 0 1.56-.316 2.12-.879.56-.562.88-1.325.88-2.121s-.32-1.559-.88-2.121a2.985 2.985 0 00-2.12-.879c-.79 0-1.55.316-2.12.879a3.003 3.003 0 00-.87 2.121c0 .796.31 1.559.87 2.121a3.02 3.02 0 002.12.879zm15.98-16c.79 0 1.55-.316 2.11-.879.56-.562.88-1.325.88-2.121s-.32-1.559-.88-2.121a2.985 2.985 0 00-4.23 0 3.012 3.012 0 00-.88 2.121c0 .796.32 1.559.88 2.121.56.563 1.32.879 2.12.879zm0-32c.79 0 1.55-.316 2.11-.879.56-.562.88-1.325.88-2.121s-.32-1.559-.88-2.121a2.985 2.985 0 00-4.23 0 3.012 3.012 0 00-.88 2.121c0 .796.32 1.559.88 2.121.56.563 1.32.879 2.12.879zm111.81 176c.8 0 1.56-.316 2.12-.879a3.01 3.01 0 00.88-2.121 3.01 3.01 0 00-.88-2.121 2.984 2.984 0 00-2.12-.879 3 3 0 00-2.12.879 3 3 0 00-.87 2.121 3 3 0 00.87 2.121 3 3 0 002.12.879zm-15.97 16c.79 0 1.55-.316 2.12-.879a3 3 0 00.87-2.121 3 3 0 00-.87-2.121 3.018 3.018 0 00-2.12-.879c-.8 0-1.56.316-2.12.879a3.01 3.01 0 00-.88 2.121c0 .796.32 1.559.88 2.121.56.563 1.32.879 2.12.879zm0 16c.79 0 1.55-.316 2.12-.879a3 3 0 00.87-2.121 3 3 0 00-.87-2.121 3.018 3.018 0 00-2.12-.879c-.8 0-1.56.316-2.12.879a3.01 3.01 0 00-.88 2.121c0 .796.32 1.559.88 2.121.56.563 1.32.879 2.12.879zm0 16c.79 0 1.55-.316 2.12-.879a3 3 0 00.87-2.121 3 3 0 00-.87-2.121 3.018 3.018 0 00-2.12-.879c-.8 0-1.56.316-2.12.879a3.01 3.01 0 00-.88 2.121c0 .796.32 1.559.88 2.121.56.563 1.32.879 2.12.879zm-239.608-64a2.999 2.999 0 002.995-3 2.999 2.999 0 00-2.995-3c-.794 0-1.556.316-2.118.879a3.003 3.003 0 000 4.242 2.993 2.993 0 002.118.879zm0 16a2.999 2.999 0 002.995-3 2.999 2.999 0 00-2.995-3c-.794 0-1.556.316-2.118.879a3.003 3.003 0 000 4.242 2.993 2.993 0 002.118.879zm0-32a2.999 2.999 0 002.995-3 2.999 2.999 0 00-2.995-3c-.794 0-1.556.316-2.118.879a3.003 3.003 0 000 4.242 2.993 2.993 0 002.118.879zm15.974 0c.794 0 1.556-.316 2.118-.879a3.003 3.003 0 000-4.242 2.993 2.993 0 00-5.113 2.121 2.999 2.999 0 002.995 3zm-15.974-80a2.994 2.994 0 002.995-3 3.001 3.001 0 00-2.995-3 2.994 2.994 0 00-2.995 3 2.994 2.994 0 002.995 3zm31.947 64a2.999 2.999 0 002.995-3 2.999 2.999 0 00-2.995-3 3 3 0 000 6zm15.974-16a2.999 2.999 0 002.995-3 2.999 2.999 0 00-2.995-3c-.794 0-1.556.316-2.118.879a3.003 3.003 0 000 4.242 2.993 2.993 0 002.118.879z" fill="url(#paint3_linear)"/></g><defs><linearGradient id="paint0_linear" x1="1062.25" y1="0" x2="1062.25" y2="466.5" gradientUnits="userSpaceOnUse"><stop stop-color="#DFE5F2" stop-opacity="0"/><stop offset="1" stop-color="#DFE5F2"/></linearGradient><linearGradient id="paint1_linear" x1="1062.25" y1="0" x2="1062.25" y2="466.5" gradientUnits="userSpaceOnUse"><stop stop-color="#DFE5F2" stop-opacity="0"/><stop offset="1" stop-color="#DFE5F2"/></linearGradient><linearGradient id="paint2_linear" x1="1062.25" y1="0" x2="1062.25" y2="466.5" gradientUnits="userSpaceOnUse"><stop stop-color="#DFE5F2" stop-opacity="0"/><stop offset="1" stop-color="#DFE5F2"/></linearGradient><linearGradient id="paint3_linear" x1="1062.25" y1="0" x2="1062.25" y2="466.5" gradientUnits="userSpaceOnUse"><stop stop-color="#DFE5F2" stop-opacity="0"/><stop offset="1" stop-color="#DFE5F2"/></linearGradient><clipPath id="clip0"><path fill="#fff" d="M0 0h1142v304H0z"/></clipPath></defs></svg>
