<svg width="1366" height="304" viewBox="0 0 1366 304" fill="none" xmlns="http://www.w3.org/2000/svg"><g clip-path="url(#clip0)"><path opacity=".05" d="M21.344 112.5L0 120v184h1366V120l-21.34-7.5-21.35-4.5-21.34 6-21.35-18-21.34 12-21.34-31.5-21.35-10.5-21.34-26-21.34-12-21.35 12-21.34 12-21.34 32-21.35-12-21.34 12-21.35 16-21.34-12-21.34 12-21.348-28-21.343-7.5-21.344-4.5-21.344 12-21.343-19.5-21.344-4.5-21.344 12-21.344 24-21.344-24-21.343-12-21.344-16.5-21.344 4.5-21.343 12-21.344-13.5L683 24l-21.344 12-21.344 66-21.343-46.5L600.247 45l-23.966 10.5-21.343-7.5-21.344 24-21.344-12-21.344 25.5-21.344-1.5-21.343-12-21.344-24-21.344 12-21.343 12-21.344-36L341.5 48l-21.344 24-21.344 24-21.343-24-21.344-12-21.344 24-21.343-12-21.344 24-21.344 12-21.344-12-21.344 4.5-21.343 3L85.375 96l-21.344 36-21.344-16.5-21.343-3z" fill="url(#paint0_linear)"/><path d="M0 120l21.344-7.5 21.343 3L64.031 132l21.344-36 21.344 7.5 21.343-3 21.344-4.5 21.344 12 21.344-12 21.344-24 21.343 12 21.344-24 21.344 12 21.343 24 21.344-24L341.5 48l21.344-12 21.344 36 21.343-12 21.344-12 21.344 24 21.343 12 21.344 1.5L512.25 60l21.344 12 21.344-24 21.343 7.5L600.247 45l18.722 10.5 21.343 46.5 21.344-66L683 24l21.344 10.5L725.688 48l21.343-12 21.344-4.5L789.719 48l21.343 12 21.344 24 21.344-24 21.344-12 21.344 4.5L917.781 72l21.344-12 21.344 4.5 21.343 7.5 21.348 28 21.34-12 21.34 12 21.35-16 21.34-12 21.35 12 21.34-32 21.34-12 21.35-12 21.34 12 21.34 26 21.35 10.5 21.34 31.5 21.34-12 21.35 18 21.34-6 21.35 4.5L1366 120" stroke="#E5EAF9" stroke-width="2"/></g><defs><linearGradient id="paint0_linear" x1="683" y1="0" x2="683" y2="304.5" gradientUnits="userSpaceOnUse"><stop stop-color="#3179FF"/><stop offset="1" stop-color="#fff" stop-opacity="0"/></linearGradient><clipPath id="clip0"><path fill="#fff" d="M0 0h1366v304H0z"/></clipPath></defs></svg>
