<svg width="1258" height="455" viewBox="0 0 1258 455" fill="none" xmlns="http://www.w3.org/2000/svg">
<g filter="url(#filter0_i_57_237)">
<path d="M206 288L235 226M206 288L177 369M206 288H117M206 288L100.228 239M206 288L196 215M206 288L202.5 328.5L181.5 239M206 288L276 257.795M235 226L232.5 225.295M235 226L327 142L276 257.795M196 215L117 139M196 215L117 288M196 215L232.5 225.295M117 139L181.5 239M117 139L187 12L373.5 185M181.5 239L177 369M177 369L117 288M117 288L1 248L100.228 239M117 288L100.228 239M117 288L58.5 203.5M117 288L15.5 219M279 256.5L232.5 225.295M279 256.5L373.5 185M279 256.5L276 257.795M66 139L100.228 239M373.5 185C354.167 220.167 315.5 291.3 315.5 294.5L276 257.795M373.5 185L490.5 139M490.5 139L530 173.5M490.5 139L524.5 248M490.5 139L498 74.5M490.5 139L550.5 83.5M490.5 139L556.5 55.5M490.5 139L667.648 122.453M530 173.5L568 130M530 173.5L594.5 207.5M530 173.5L589 257.795M530 173.5L524.5 248M530 173.5L550.5 83.5M530 173.5L498 74.5M530 173.5L592 136M568 130L592 136M568 130L628 29M568 130L569.197 133.5M568 130L498 74.5M592 136L628 29M592 136L592.105 139M592 136L667.648 122.453M594.5 207.5L666 121M594.5 207.5L661.5 248M594.5 207.5L589 257.795M594.5 207.5L543 268.5M594.5 207.5L524.5 248M594.5 207.5L592.105 139M594.5 207.5L569.197 133.5M666 121L661.5 248M666 121L667.648 122.453M666 121L600.5 29M666 121L650.5 17.5M666 121L758.5 77.5M666 121L556.5 55.5M746.5 192L733.5 243.5M746.5 192L661.5 248M746.5 192L667.648 122.453M746.5 192L839.5 201.5M746.5 192L789.5 113.5M746.5 192L750.5 139M746.5 192L831.5 151.5M733.5 243.5L661.5 248M733.5 243.5L839.5 201.5M524.5 248L589 257.795M498 74.5L556.5 55.5M498 74.5L550.5 83.5M556.5 55.5L550.5 83.5M556.5 55.5L592.105 139M550.5 83.5L628 29M550.5 83.5L569.197 133.5M550.5 83.5L667.648 122.453M667.648 122.453L727.5 23.5M667.648 122.453L746.5 138.201M758.5 77.5L875 66L831.5 23.5M758.5 77.5L784 3.5M758.5 77.5L828.5 23.5M750.5 139C753.167 118.5 758 76.9 756 74.5C754 72.1 777.5 99.5 789.5 113.5M750.5 139L746.5 138.201M750.5 139L831.5 151.5M750.5 139L839.5 201.5M839.5 201.5L831.5 151.5M839.5 201.5L789.5 113.5M839.5 201.5L875 262.5M839.5 201.5L891.5 136.738M831.5 151.5L877.5 66M831.5 151.5L789.5 113.5M831.5 151.5L891.5 136.738M831.5 151.5L894.5 262.5M894.5 136L877.5 66M894.5 136L891.5 136.738M894.5 136V262.5M894.5 136L909.5 51.5M877.5 66L909.5 51.5M877.5 66L789.5 113.5M909.5 51.5L831.5 23.5M831.5 23.5L789.5 113.5M789.5 113.5L746.5 138.201M789.5 113.5L766.5 3.5M891.5 136.738L872.5 262.5M872.5 262.5H894.5M872.5 262.5L900.5 288M894.5 262.5L900.5 288M894.5 262.5L1004.5 241M900.5 288L1004.5 218.5M900.5 288L901.211 290.134M900.5 288L993 322.5M920 346.5L987 355M920 346.5L901.211 290.134M920 346.5C922.8 346.855 971.5 330.648 995.5 322.5M987 355L993 322.5M987 355L1112 357.5M993 322.5L1016 281.5M1016 281.5L1004.5 241M1016 281.5L901.211 290.134M1016 281.5L1062.5 243.5M1004.5 241L1062.5 243.5M1004.5 241L995.5 322.5M1004.5 241V218.5M1004.5 241L1094.5 207.5M1062.5 243.5L1094.5 207.5M1062.5 243.5L1004.5 218.5M1062.5 243.5L1167.31 206.077M1062.5 243.5L1152 312.5M1062.5 243.5L1112 357.5M1094.5 207.5L1004.5 218.5M1094.5 207.5L1129.5 144M1094.5 207.5L1050.5 118.5M1094.5 207.5L1163.5 177.5M1094.5 207.5H1167.5M1094.5 207.5L1152 312.5M1004.5 218.5L1050.5 118.5M995.5 322.5C998.7 322.5 1074.5 345.833 1112 357.5M1129.5 144L1085 77.5M1129.5 144L1050.5 118.5M1129.5 144L1163.5 177.5M1129.5 144L1167.31 206.077M1129.5 144L1183 62.5M1129.5 144L1216.5 91.5M1050.5 118.5L1085 77.5M1050.5 118.5L1031 1M1050.5 118.5L1007 17.5L1085 77.5M1085 77.5L1183 62.5M1167.5 207.5L1167.31 206.077M1167.5 207.5L1257.5 161L1163.5 177.5M1167.5 207.5L1152 312.5M1163.5 177.5L1167.31 206.077M1163.5 177.5L1183 62.5M1163.5 177.5L1216.5 91.5M1167.31 206.077L1216.5 91.5M1183 62.5L1216.5 91.5M1183 62.5L1209 37L1216.5 91.5M1152 312.5L1112 357.5M1152 312.5L1148.5 343M1148.5 343L1112 357.5M1148.5 343L1112 422M1112 357.5V422M1112 422L1167.5 454.5" stroke="#778C3A"/>
</g>
<defs>
<filter id="filter0_i_57_237" x="0.836914" y="0.918091" width="1256.89" height="456.013" filterUnits="userSpaceOnUse" color-interpolation-filters="sRGB">
<feFlood flood-opacity="0" result="BackgroundImageFix"/>
<feBlend mode="normal" in="SourceGraphic" in2="BackgroundImageFix" result="shape"/>
<feColorMatrix in="SourceAlpha" type="matrix" values="0 0 0 0 0 0 0 0 0 0 0 0 0 0 0 0 0 0 127 0" result="hardAlpha"/>
<feOffset dy="4"/>
<feGaussianBlur stdDeviation="1"/>
<feComposite in2="hardAlpha" operator="arithmetic" k2="-1" k3="1"/>
<feColorMatrix type="matrix" values="0 0 0 0 0.518269 0 0 0 0 0.641667 0 0 0 0 0.173785 0 0 0 1 0"/>
<feBlend mode="normal" in2="shape" result="effect1_innerShadow_57_237"/>
</filter>
</defs>
</svg>
